<svg xmlns="http://www.w3.org/2000/svg" width="30" height="30" fill="currentColor" viewBox="0 0 30 30">
  <path d="m20.865 14-5.238-5.238a.925.925 0 1 0-1.309 1.31l3.816 3.816H8.333a.926.926 0 0 0 0 1.851h9.8l-3.815 3.816a.925.925 0 1 0 1.31 1.309l5.237-5.238a.91.91 0 0 0 .24-.813.913.913 0 0 0-.24-.813ZM14.814 0C6.632 0 0 6.632 0 14.814c0 8.181 6.632 14.813 14.814 14.813 8.181 0 14.813-6.633 14.813-14.813C29.627 6.633 22.995 0 14.814 0Zm0 27.775c-7.16 0-12.962-5.803-12.962-12.961 0-7.16 5.803-12.962 12.962-12.962 7.158 0 12.961 5.803 12.961 12.962 0 7.158-5.803 12.961-12.961 12.961Z"/>
</svg>
