<svg width="188" height="187" viewBox="0 0 188 187" fill="none" xmlns="http://www.w3.org/2000/svg">
<path d="M154.474 122.584C104.27 122.584 64.3641 82.678 64.3641 32.4739C64.3641 -17.7301 104.27 -57.6359 154.474 -57.6359H160.91C167.347 -56.3486 172.496 -49.9122 171.209 -42.1885C169.921 -35.7521 163.485 -30.6029 155.761 -31.8902H154.474C118.43 -31.8902 90.1098 -3.56998 90.1098 32.4739C90.1098 68.5179 118.43 96.8381 154.474 96.8381C190.518 96.8381 218.838 68.5179 218.838 32.4739V31.1866C217.551 24.7502 222.7 17.0266 229.136 17.0266C235.573 15.7393 242.009 19.6011 243.296 27.3248V33.7612C244.584 82.678 204.678 122.584 154.474 122.584ZM308.948 32.4739C308.948 22.1757 307.661 11.8774 306.373 2.86642C305.086 -3.56999 298.65 -8.71912 290.926 -7.43184C284.489 -6.14455 279.34 0.29187 280.628 8.01556C281.915 15.7393 283.202 24.7502 283.202 32.4739C283.202 103.274 225.274 161.202 154.474 161.202C83.6734 161.202 25.7457 103.274 25.7457 32.4739C25.7457 -38.3266 83.6734 -96.2543 154.474 -96.2543C163.485 -96.2543 171.209 -94.9671 178.932 -93.6798C185.369 -92.3925 193.092 -96.2543 194.38 -103.978C195.667 -110.414 191.805 -118.138 184.081 -119.425C175.07 -120.713 164.772 -122 154.474 -122C69.5133 -122 0 -52.4867 0 32.4739C0 117.435 69.5133 186.948 154.474 186.948C239.435 186.948 308.948 117.435 308.948 32.4739Z" fill="#F26D4A"/>
</svg>
