<svg width="46" height="46" viewBox="0 0 46 46" fill="none" xmlns="http://www.w3.org/2000/svg">
<path d="M27.6 23C27.6 23.9098 27.3302 24.7992 26.8247 25.5556C26.3193 26.3121 25.6009 26.9017 24.7603 27.2498C23.9198 27.598 22.9949 27.6891 22.1026 27.5116C21.2103 27.3341 20.3906 26.896 19.7473 26.2527C19.104 25.6094 18.6659 24.7897 18.4884 23.8974C18.3109 23.0051 18.402 22.0802 18.7502 21.2397C19.0983 20.3991 19.6879 19.6807 20.4444 19.1752C21.2009 18.6698 22.0902 18.4 23 18.4C24.2197 18.401 25.3892 18.8859 26.2516 19.7484C27.1141 20.6108 27.599 21.7803 27.6 23ZM34.3006 25.438L32.4453 26.1817C32.2993 26.6082 32.1277 27.0255 31.9316 27.4313L32.7136 29.2713C32.8365 29.5521 32.8715 29.8635 32.814 30.1646C32.7566 30.4656 32.6093 30.7422 32.3916 30.958L30.9579 32.3917C30.7422 32.6094 30.4656 32.7566 30.1645 32.8141C29.8635 32.8716 29.5521 32.8366 29.2713 32.7137L27.4313 31.9317C27.0254 32.1278 26.6081 32.2994 26.1816 32.4454L25.438 34.3007C25.3266 34.5875 25.1305 34.8336 24.8757 35.0062C24.621 35.1788 24.3197 35.2696 24.012 35.2667H21.988C21.6803 35.2696 21.379 35.1788 21.1243 35.0062C20.8695 34.8336 20.6734 34.5875 20.562 34.3007L19.8184 32.4453C19.3919 32.2993 18.9746 32.1278 18.5687 31.9317L16.7287 32.7137C16.4479 32.8366 16.1365 32.8716 15.8355 32.8141C15.5344 32.7566 15.2578 32.6094 15.0421 32.3917L13.6084 30.958C13.3907 30.7422 13.2434 30.4656 13.186 30.1646C13.1285 29.8635 13.1635 29.5521 13.2864 29.2713L14.0684 27.4313C13.8723 27.0255 13.7007 26.6082 13.5547 26.1817L11.6994 25.438C11.4126 25.3266 11.1665 25.1305 10.9939 24.8757C10.8213 24.621 10.7305 24.3197 10.7334 24.012V21.988C10.7305 21.6803 10.8213 21.379 10.9939 21.1243C11.1665 20.8695 11.4126 20.6734 11.6994 20.562L13.5547 19.8183C13.7007 19.3918 13.8723 18.9745 14.0684 18.5687L13.2864 16.7287C13.1635 16.4479 13.1285 16.1365 13.186 15.8354C13.2434 15.5344 13.3907 15.2578 13.6084 15.042L15.0421 13.6083C15.2578 13.3906 15.5344 13.2434 15.8355 13.1859C16.1365 13.1284 16.4479 13.1634 16.7287 13.2863L18.5687 14.0683C18.9746 13.8722 19.3919 13.7007 19.8184 13.5547L20.562 11.6993C20.6734 11.4125 20.8695 11.1664 21.1243 10.9938C21.379 10.8212 21.6803 10.7304 21.988 10.7333H24.012C24.3197 10.7304 24.621 10.8212 24.8757 10.9938C25.1305 11.1664 25.3266 11.4125 25.438 11.6993L26.1816 13.5547C26.6081 13.7007 27.0254 13.8722 27.4313 14.0683L29.2713 13.2863C29.5521 13.1634 29.8635 13.1284 30.1645 13.1859C30.4656 13.2434 30.7422 13.3906 30.9579 13.6083L32.3916 15.042C32.6093 15.2578 32.7566 15.5344 32.814 15.8354C32.8715 16.1365 32.8365 16.4479 32.7136 16.7287L31.9316 18.5687C32.1277 18.9745 32.2993 19.3918 32.4453 19.8183L34.3006 20.562C34.5868 20.6743 34.8323 20.8706 35.0048 21.1252C35.1772 21.3797 35.2685 21.6805 35.2666 21.988V24.012C35.2695 24.3197 35.1787 24.621 35.0061 24.8757C34.8335 25.1305 34.5874 25.3266 34.3006 25.438ZM29.1333 23C29.1333 21.7869 28.7736 20.6011 28.0996 19.5925C27.4257 18.5839 26.4678 17.7978 25.3471 17.3335C24.2264 16.8693 22.9932 16.7479 21.8035 16.9845C20.6137 17.2212 19.5209 17.8053 18.6631 18.6631C17.8053 19.5208 17.2212 20.6137 16.9846 21.8034C16.7479 22.9932 16.8694 24.2264 17.3336 25.3471C17.7978 26.4678 18.5839 27.4257 19.5925 28.0997C20.6011 28.7736 21.7869 29.1333 23 29.1333C24.626 29.1312 26.1848 28.4843 27.3345 27.3345C28.4843 26.1848 29.1311 24.626 29.1333 23ZM41.5369 36.6196C44.4522 32.6787 46.0175 27.902 45.9999 23C45.9979 19.1542 45.0322 15.3701 43.1909 11.9938C41.3495 8.61739 38.6913 5.75636 35.4592 3.67217C32.2271 1.58797 28.5242 0.34708 24.6889 0.0629099C20.8536 -0.22126 17.0083 0.460354 13.5043 2.04545C13.4104 2.08803 13.3261 2.14911 13.2564 2.22503C13.1866 2.30095 13.1329 2.39016 13.0985 2.48731C13.064 2.58447 13.0495 2.68758 13.0558 2.79047C13.0621 2.89336 13.0891 2.99393 13.1352 3.08614L14.5083 5.83234C14.5967 6.0091 14.7499 6.14492 14.936 6.21145C15.1221 6.27799 15.3266 6.27012 15.5071 6.18947C19.1603 4.56281 23.244 4.17022 27.1402 5.07108C31.0364 5.97194 34.5333 8.11725 37.1018 11.1825C39.6702 14.2477 41.1705 18.066 41.3757 22.0598C41.5809 26.0536 40.4797 30.0055 38.2389 33.3178L35.8086 30.8905C35.7013 30.7835 35.5646 30.7106 35.4159 30.6812C35.2672 30.6517 35.1131 30.667 34.9731 30.7251C34.8331 30.7832 34.7134 30.8815 34.6292 31.0075C34.545 31.1336 34.5 31.2817 34.4999 31.4333V39.8667C34.4999 39.9674 34.5197 40.0671 34.5582 40.1601C34.5967 40.2532 34.6531 40.3377 34.7243 40.4089C34.7955 40.4801 34.8801 40.5366 34.9731 40.5751C35.0662 40.6136 35.1659 40.6334 35.2666 40.6333H43.6999C43.8515 40.6333 43.9997 40.5884 44.1258 40.5041C44.2518 40.4199 44.3501 40.3002 44.4081 40.1601C44.4661 40.02 44.4813 39.8659 44.4517 39.7172C44.4221 39.5684 44.3491 39.4319 44.2419 39.3246L41.5369 36.6196ZM31.4917 40.1677C31.4034 39.9908 31.2502 39.8549 31.0641 39.7884C30.878 39.7218 30.6733 39.7298 30.4929 39.8105C26.8397 41.4372 22.756 41.8298 18.8598 40.9289C14.9635 40.028 11.4667 37.8827 8.89825 34.8175C6.3298 31.7523 4.8295 27.934 4.62433 23.9402C4.41915 19.9464 5.52025 15.9945 7.76106 12.6822L10.1914 15.1095C10.2987 15.2165 10.4354 15.2894 10.5841 15.3188C10.7328 15.3483 10.8869 15.333 11.0269 15.2749C11.1669 15.2168 11.2866 15.1185 11.3708 14.9925C11.455 14.8664 11.5 14.7183 11.5001 14.5667V6.13332C11.5001 6.03263 11.4803 5.93291 11.4418 5.83986C11.4033 5.74682 11.3469 5.66228 11.2757 5.59108C11.2044 5.51988 11.1199 5.46341 11.0269 5.4249C10.9338 5.38639 10.8341 5.3666 10.7334 5.36666H2.30013C2.14851 5.36665 2.00029 5.41162 1.87423 5.49586C1.74816 5.5801 1.6499 5.69983 1.59188 5.83991C1.53386 5.97999 1.51869 6.13414 1.54827 6.28285C1.57786 6.43155 1.65088 6.56815 1.7581 6.67536L4.46313 9.3804C1.54776 13.3213 -0.0175158 18.098 0.000147868 23C0.00205133 26.8458 0.967804 30.6299 2.80914 34.0062C4.65048 37.3826 7.30867 40.2436 10.5408 42.3278C13.7729 44.412 17.4758 45.6529 21.3111 45.9371C25.1464 46.2213 28.9917 45.5396 32.4957 43.9545C32.5896 43.912 32.6739 43.8509 32.7436 43.775C32.8134 43.6991 32.8671 43.6098 32.9015 43.5127C32.936 43.4155 32.9505 43.3124 32.9442 43.2095C32.9379 43.1066 32.9109 43.0061 32.8648 42.9139L31.4917 40.1677Z" fill="white"/>
</svg>
