<svg width="60" height="60" viewBox="0 0 60 60" fill="none" xmlns="http://www.w3.org/2000/svg">
<path d="M31.2713 48.6956V17.2491C30.7118 17.3632 30.1331 17.4243 29.5405 17.4243C28.9478 17.4243 28.3691 17.3632 27.8096 17.2491V48.6956H21.547L16.3543 59.0809H42.7267L37.534 48.6956H31.2713Z" fill="#F26D4A"/>
<path d="M24.2324 33.0022V31.2713H0V33.0022C0 37.7875 5.4276 45.1184 12.1162 45.1184C18.8048 45.1184 24.2324 37.7875 24.2324 33.0022Z" fill="#F26D4A"/>
<path d="M34.8485 31.2713V33.0022C34.8485 37.7875 40.2761 45.1184 46.9647 45.1184C53.6533 45.1184 59.0809 37.7875 59.0809 33.0022V31.2713H34.8485Z" fill="#F26D4A"/>
<path d="M12.1162 19.0577L17.3674 27.8096H21.4045L14.6455 16.5446L25.6573 12.1819C26.6096 13.2646 27.9885 13.9625 29.5405 13.9625C31.0924 13.9625 32.4713 13.2646 33.4235 12.182L44.4353 16.5447L37.6764 27.8096H41.7135L46.9647 19.0577L52.2159 27.8096H56.253L48.1496 14.3039L34.713 8.96784C34.7156 8.90056 34.7331 8.83767 34.7331 8.76982C34.7331 6.51621 33.2817 4.61293 31.2713 3.89599V0H27.8096V3.89599C25.7992 4.61293 24.3478 6.51621 24.3478 8.76982C24.3478 8.83767 24.3653 8.90056 24.3679 8.96784L10.9312 14.3039L2.82792 27.8096H6.86504L12.1162 19.0577Z" fill="#F26D4A"/>
</svg>
