<svg width="49" height="54" viewBox="0 0 49 54" fill="none" xmlns="http://www.w3.org/2000/svg">
<path d="M46.4701 19.5919L37.3887 23.7435C38.243 25.612 38.6761 27.6128 38.6761 29.69C38.6761 37.5887 32.25 44.0147 24.3514 44.0147C16.4528 44.0147 9.9853 37.5887 9.9853 29.69C9.9853 22.722 15.0319 16.9031 21.5223 15.628V21.5458L39.8995 10.7729L21.5223 0V5.53485C9.53996 6.8971 0 17.2094 0 29.6903C0 43.0948 10.9262 54.0003 24.3307 54.0003C37.7352 54.0003 48.6509 43.0948 48.6509 29.6903C48.6509 26.1702 47.9242 22.773 46.4701 19.5919Z" fill="white"/>
</svg>
