<svg width="56" height="56" viewBox="0 0 56 56" fill="none" xmlns="http://www.w3.org/2000/svg">
<path d="M49.9436 16.6422C49.8796 15.2478 49.8796 13.9169 49.8796 12.5859C49.8796 11.5085 49.0484 10.6846 47.9615 10.6846C39.9691 10.6846 33.8949 8.40299 28.8438 3.52287C28.0765 2.82571 26.9256 2.82571 26.1583 3.52287C21.1071 8.40299 15.033 10.6846 7.04061 10.6846C5.95365 10.6846 5.12244 11.5085 5.12244 12.5859C5.12244 13.9169 5.12244 15.2478 5.0585 16.6422C4.80275 29.9516 4.41911 48.2045 26.8616 55.8732L27.501 56L28.1404 55.8732C50.519 48.2045 50.1993 30.0149 49.9436 16.6422ZM25.9665 35.0852C25.5829 35.4021 25.1353 35.5922 24.6238 35.5922H24.5598C24.0483 35.5922 23.5368 35.3387 23.2171 34.9584L17.2708 28.4305L20.1481 25.8954L24.8156 31.029L35.1737 21.2688L37.7952 24.0574L25.9665 35.0852Z" fill="white"/>
</svg>
