<svg width="32" height="49" viewBox="0 0 32 49" fill="none" xmlns="http://www.w3.org/2000/svg">
<path d="M6.64394 42.3527V44.4118C6.64394 48.0133 8.02353 49 13.06 49H21.0687C26.1086 49 27.4882 48.0133 27.4882 44.4118V42.3527H6.64394Z" fill="white"/>
<path d="M14.3069 20.1227L3.18782 21.4083C-0.0423465 22.2267 -0.605888 23.8285 0.553186 28.7981C1.5809 33.212 3.13405 34.986 4.3816 36.409C5.46241 37.6464 6.40505 38.7387 6.60038 40.908H27.5223C27.6856 38.839 28.6323 37.6906 29.6948 36.4255C30.762 35.1642 32.0061 33.6892 32 29.7537L31.9925 25.2514C31.9632 25.2652 31.9428 25.2784 31.9217 25.289C31.2227 25.6223 30.4393 25.7879 29.6566 25.7879C28.8726 25.7879 28.0892 25.6229 27.3882 25.289C26.9274 25.0692 26.5374 24.7769 26.1998 24.4469C25.8024 25.186 25.1333 25.8282 24.2608 26.2413C23.5591 26.5746 22.775 26.7363 21.9923 26.7363C21.2089 26.7363 20.4262 26.5746 19.7239 26.2413C19.0147 25.9041 18.4368 25.423 18.0366 24.8528C17.9978 24.9287 17.9699 25.0072 17.9271 25.0831C17.2002 26.4129 15.856 26.9046 14.5097 27.2386L13.7651 27.3725C16.0057 29.3116 16.346 32.4531 16.346 35.3583C16.346 35.7602 15.9989 36.0796 15.5694 36.0796C15.14 36.0796 14.7935 35.7602 14.7935 35.3583C14.7935 32.2709 14.4355 29.2225 11.8227 27.8161C11.7839 27.7956 11.7587 27.7613 11.7233 27.7369L7.36334 28.5176C6.94477 28.5895 6.53709 28.3355 6.45609 27.9434C6.37374 27.5507 6.65143 27.1732 7.07273 27.098L14.1619 25.8289C15.2965 25.5477 16.1194 25.2098 16.5441 24.4271C17.0368 23.5262 17.0368 22.4128 16.5441 21.5153C16.0772 20.6566 15.2216 20.1234 14.311 20.1234L14.3069 20.1227Z" fill="white"/>
<path d="M28.0007 14.1756C27.6291 14.3512 27.331 14.5994 27.1112 14.8878C27.1112 14.8878 26.7212 22.6834 26.728 22.7006C26.8233 23.0583 27.3453 23.6496 28.0892 24.0027C29.0529 24.4601 30.2515 24.4568 31.2159 24.0027C31.4534 23.8892 31.6699 23.7559 31.8611 23.5935C31.8965 23.5625 31.9428 23.5216 31.9857 23.48L31.9714 15.8969C31.9714 15.8698 31.9823 15.85 31.9857 15.8249C31.9537 15.1557 31.482 14.5261 30.7232 14.175C30.3046 13.9823 29.8336 13.8866 29.3619 13.8866C28.8916 13.8872 28.42 13.9836 28.0007 14.1756Z" fill="white"/>
<path d="M20.951 12.533C20.0322 12.9699 19.4618 13.7704 19.4618 14.6159C19.4618 14.6264 19.4584 14.6297 19.4584 14.637V14.6614L18.9337 22.9144C18.9337 23.7189 19.5081 24.5162 20.4262 24.9524C21.39 25.4098 22.5879 25.4098 23.5557 24.9524C24.4745 24.5162 25.0442 23.7189 25.0442 22.8702L25.5757 14.6093C25.6295 13.7671 24.9986 12.9705 24.0838 12.5336H24.0804C23.5986 12.3066 23.0595 12.1898 22.5164 12.1898C21.9794 12.1891 21.4329 12.3026 20.951 12.533Z" fill="white"/>
<path d="M14.8534 12.1891C14.311 12.1891 13.7692 12.3026 13.286 12.533C12.3685 12.9699 11.7975 13.7704 11.7975 14.6159V18.9611C11.7975 18.9611 14.8888 18.682 14.8956 18.682C15.5762 18.682 16.7673 19.2872 17.5473 20.291L17.9087 14.6093C17.9046 13.7671 17.3302 12.9705 16.4134 12.5336C15.9342 12.3026 15.3932 12.1891 14.8534 12.1891Z" fill="white"/>
<path d="M4.98462 2.48877L4.55175 19.7927L10.277 19.136C10.2655 19.0872 10.245 19.0463 10.245 18.9988V14.633L9.85096 2.43993C9.79447 0.697595 8.5864 0 7.50423 0C6.40301 0 5.0309 0.729275 4.98462 2.48877Z" fill="white"/>
</svg>
