<svg width="60" height="65" viewBox="0 0 60 65" fill="none" xmlns="http://www.w3.org/2000/svg">
<path d="M28.5439 27.6976C26.6187 27.0489 24.823 28.4143 23.721 29.8926C24.4937 29.3931 25.2452 29.0404 26.1859 29.315C26.9259 29.531 27.5159 30.1579 27.8501 30.842C28.903 32.9973 28.6363 35.6676 27.9538 37.8981C27.3444 39.7061 26.2899 41.7545 24.5268 42.6592C22.93 43.4787 21.6546 42.6928 20.9225 41.2138L20.8824 41.1554C20.879 41.168 20.876 41.1807 20.873 41.1933C20.9555 42.1214 21.4457 43.4835 21.9508 44.1841C22.6172 45.1085 23.1978 45.4388 24.2271 45.6254C24.7078 45.3723 25.0283 45.2064 25.573 45.0985C25.7299 45.0672 26.3232 44.969 26.4344 44.9195C27.8532 44.2864 29.2036 42.0949 29.8351 40.7283C31.2554 37.654 31.8822 33.5449 30.729 30.3064C30.3214 29.1614 29.6526 28.218 28.5439 27.6976Z" fill="white"/>
<path d="M18.6667 40.8417C18.9908 40.4613 19.8303 39.3845 19.9443 38.9433C19.9927 38.7547 20.0674 37.5424 20.1037 37.2243C20.2084 36.3585 20.3812 35.5023 20.6203 34.6637C20.8309 33.9098 21.0967 33.1728 21.4009 32.4518C21.6769 31.7983 22.111 31.3739 22.0798 30.631C21.9891 28.4607 21.2067 24.8684 18.4184 24.9682C17.487 25.0015 16.3741 25.7258 15.7629 26.3908C15.6587 26.8069 15.4937 26.607 15.6508 26.884C16.2214 26.6486 16.7003 26.5391 17.3207 26.7122C18.0029 26.9026 18.571 27.5734 18.8745 28.1981C19.9001 30.3092 19.5864 33.2116 18.8681 35.3848C18.3212 37.0388 17.151 39.1348 15.5466 39.9329C14.9673 40.2212 14.3102 40.3208 13.6939 40.085C12.7877 39.7385 12.4032 38.9486 12.0226 38.1324C12.1435 39.2536 12.4132 40.3415 12.9895 41.3184C14.0014 41.8483 13.8251 41.9485 14.4821 42.6457L14.5082 42.6729C15.046 42.8121 15.2839 42.8076 15.8277 42.7213C15.9136 41.9884 16.2138 41.3456 16.8792 40.9633C17.5005 40.6062 18.0182 40.6752 18.6667 40.8417Z" fill="white"/>
<path d="M25.5324 30.3224C25.5065 30.3284 25.4217 30.36 25.4126 30.3777C24.999 31.1923 24.8888 31.8711 24.2907 32.5861C23.7775 33.1995 22.3118 32.8786 22.1305 33.0399C22.2871 33.3448 23.0386 33.5835 23.3814 33.924C24.2546 34.791 23.6454 36.1285 23.6679 37.1212C23.7027 37.113 23.738 37.1045 23.7732 37.0964C24.2108 36.2887 24.3368 35.5737 24.9396 34.8564C25.4439 34.2566 26.9121 34.5769 27.1006 34.3572C26.6953 34.0203 26.0888 33.8013 25.6982 33.3921C24.9878 32.6474 25.5335 31.2422 25.5324 30.3224Z" fill="white"/>
<path d="M16.6506 27.7236C16.4745 27.7756 16.362 28.1428 16.2944 28.3169C16.04 28.9731 15.8643 29.4145 15.434 29.9556C14.8921 30.6368 13.5923 30.1871 13.2858 30.4363C13.323 30.5618 14.1098 30.9696 14.3114 31.1022C15.625 31.969 14.6475 33.4836 14.8269 34.5131C15.0989 34.3789 15.5438 32.6835 16.0089 32.2768C16.6756 31.694 17.0195 31.8408 17.8638 31.8264C17.9871 31.8243 18.1438 31.794 18.2216 31.7095C17.91 31.4537 17.126 31.1453 16.8273 30.8041C16.1303 30.0071 16.6238 28.695 16.6506 27.7236Z" fill="white"/>
<path d="M15.7629 26.3908C15.4154 26.71 15.1986 26.9841 14.9083 27.3539C15.1164 27.2182 15.4399 26.9928 15.6508 26.884C15.4937 26.607 15.6587 26.8069 15.7629 26.3908Z" fill="white"/>
<path fill-rule="evenodd" clip-rule="evenodd" d="M52.6141 27.4404C52.2953 27.5359 52.1187 27.6539 51.7054 27.7475C50.3953 28.0439 48.8214 28.0691 47.4803 28.0149C40.7371 27.7428 33.6471 26.3691 27.1926 24.4596C24.3482 23.6486 21.5595 22.6541 18.8437 21.4824C17.0322 20.686 14.8273 19.7206 13.4663 18.2653C13.0389 19.0593 12.8246 20.1296 12.6026 21.0091C12.3145 22.1631 12.0336 23.3189 11.76 24.4764C10.6664 28.9915 9.647 33.5241 8.70259 38.073C8.09395 40.8979 7.50414 43.7273 6.93271 46.5599L6.43926 49.0001C6.24891 49.9287 5.85922 51.4845 6.31234 52.35C7.85397 55.2949 12.0133 57.4791 14.8887 58.7604C16.8509 59.6166 18.8693 60.3373 20.93 60.9181C25.5106 62.2044 35.9423 63.9775 40.2692 61.517C40.546 61.3594 40.8184 61.1768 41.0377 60.9441C41.8556 60.0757 42.2171 58.602 42.5284 57.4729C41.6501 57.5768 40.9501 57.5821 40.111 57.6291C30.7192 58.1553 32.8013 47.6359 34.5921 41.9171C35.0612 40.4187 35.5548 38.9713 36.1936 37.5253C36.7956 36.1403 37.5217 34.8129 38.3631 33.5591C39.7231 31.5517 41.5748 29.459 44.0728 28.9845C45.8717 28.6429 47.7293 29.2559 49.2135 30.267C49.4922 30.1496 49.7161 30.06 50.0073 29.9788C50.8083 29.7553 51.6253 29.7121 52.2751 29.1513C52.4078 28.684 52.5094 27.9536 52.6141 27.4404ZM15.4512 50.4869C15.8022 50.7318 16.0927 51.014 16.427 51.25C17.4167 51.9483 18.5402 52.1733 19.7368 52.1119C19.9882 52.0987 20.3636 52.0789 20.6195 52.1097C20.6716 52.1159 20.7362 52.226 20.7615 52.276C20.745 52.5556 20.4694 52.6323 20.2298 52.6957C18.7468 53.0183 17.1966 52.7244 15.9346 51.8821C15.6268 51.6796 14.862 50.948 15.0813 50.5451C15.206 50.4625 15.3067 50.4511 15.4512 50.4869ZM11.3083 45.9706C11.5168 44.9381 12.7255 44.2666 13.6952 44.5302C13.8 44.6434 13.8201 44.6524 13.8537 44.7965C13.7918 45.1177 13.3937 45.1543 13.109 45.2323C15.3327 48.9351 19.7315 50.2273 23.8323 49.5496C24.3785 49.4593 25.0767 49.2542 25.578 49.0224C25.453 48.6436 25.358 47.7229 25.8533 47.583C25.9941 47.5957 25.9894 47.6026 26.0955 47.6878C26.2835 48.0766 26.1902 48.7779 26.5138 49.4536C26.85 50.1552 27.7451 50.5764 27.7554 51.0612C27.6273 51.322 27.3767 51.3025 27.1387 51.206C26.5353 50.8397 26.1694 50.5156 25.833 49.8732C23.1894 50.9433 19.6187 50.7928 17.006 49.6881C15.0734 48.8894 13.4518 47.4868 12.3824 45.69C12.1617 45.9583 11.7914 46.5834 11.4073 46.3995C11.3096 46.2758 11.2775 46.1236 11.3083 45.9706ZM12.5537 30.1257C13.5434 27.6092 16.4079 23.2964 19.5978 24.401C21.7112 25.1794 22.6753 27.8894 22.7463 29.9685C23.8282 28.562 25.2568 27.0293 27.1234 26.7948C28.0341 26.6756 28.9548 26.9299 29.6753 27.4998C31.1408 28.646 31.8038 30.763 31.9934 32.5681C32.394 36.383 31.2535 40.6563 28.903 43.7028C28.4913 44.2366 28.0084 44.6862 27.5084 45.1225C28.0708 45.2874 28.7867 45.5506 29.0845 46.0981C29.165 46.2457 29.1844 46.3291 29.0498 46.4292C28.6098 46.4949 28.3328 46.1842 27.9026 46.0303C26.6666 45.5885 25.3802 45.7595 24.3144 46.5302C24.0689 46.7077 23.8177 47.017 23.4981 46.9242C23.2967 46.7005 23.4502 46.5027 23.5695 46.2735C22.3085 45.8668 21.5221 45.0968 20.9256 43.9223C20.782 43.637 20.6568 43.343 20.5515 43.0415C20.2657 42.1605 20.0536 41.2159 20.0358 40.289C19.7887 40.6188 19.5327 40.9423 19.2685 41.2584C19.5143 41.5129 20.0842 42.2113 19.8837 42.5705C19.7553 42.6541 19.8233 42.6365 19.6735 42.6294C19.5147 42.5275 19.3298 42.2875 19.208 42.1347C18.0684 40.7043 16.2374 41.7403 16.6757 43.4573C16.8531 44.1523 17.4615 44.6823 18.1483 44.8755C18.2967 44.9179 18.6563 45.047 18.7064 45.2169C18.7749 45.4993 18.5529 45.6147 18.3241 45.6149C17.7124 45.6147 17.0371 45.2356 16.6116 44.8204C16.2316 44.4558 15.9705 43.9847 15.8627 43.4687C15.4574 43.5098 15.2006 43.5186 14.7942 43.5173C14.8465 43.7553 14.9014 44.0116 14.6619 44.1715C14.3866 44.153 14.1644 43.5809 14.0225 43.3594C13.3929 42.378 12.3775 41.6464 11.1624 41.8844C10.8226 41.9509 10.4411 42.2875 10.139 42.0087C10.0961 41.6018 10.734 41.2715 11.0644 41.1764C11.4043 41.079 11.6991 41.0715 12.0481 41.0872C10.6062 37.6158 11.21 33.5429 12.5537 30.1257Z" fill="white"/>
<path d="M50.598 21.0327C48.0092 21.8442 42.7568 21.215 40.1361 20.8186C34.2895 19.9342 28.3336 18.3918 22.8715 16.1161C21.3811 15.4952 19.272 14.4773 18.0894 13.3806C16.9478 14.8043 15.2308 15.7698 14.0972 17.1873C13.5516 17.8698 15.6911 19.0275 16.1436 19.2975C17.8278 20.2517 19.8748 21.0911 21.6792 21.7832C28.9352 24.5191 36.5234 26.2761 44.2436 27.0077C46.3877 27.2061 48.7326 27.4041 50.8733 27.1044C51.3526 27.0373 52.1751 26.9241 52.4641 26.485C52.7059 26.1175 51.2789 23.0327 51.0783 22.5273C50.8948 22.0652 50.7026 21.5727 50.6078 21.0849L50.598 21.0327Z" fill="white"/>
<path d="M28.6695 2.13997C27.5025 1.95172 26.1844 2.44845 25.9101 3.71572L26.8021 3.5271C27.7923 3.31792 28.7922 3.21508 29.7978 3.12023C29.479 2.53413 29.3139 2.35875 28.6695 2.13997Z" fill="white"/>
<path d="M30.8039 4.72379C31.1708 4.2598 31.237 3.60194 31.0059 3.06374C30.7286 2.41728 30.2627 2.14052 29.6473 1.89285C30.4669 2.75325 30.6467 3.2756 30.4645 4.45384C30.3644 4.73962 30.2554 5.0401 30.1221 5.31204C30.4105 5.12023 30.5945 5.00852 30.8039 4.72379Z" fill="white"/>
<path fill-rule="evenodd" clip-rule="evenodd" d="M30.4642 0.188806C29.2182 -0.21673 26.9777 0.0748999 25.7866 0.64653C25.456 0.805134 24.788 1.61349 24.5227 1.66937C24.3623 1.63573 24.4226 1.6749 24.3217 1.57271C24.2683 1.34895 24.3964 1.18478 24.5099 0.987909C24.0454 1.31479 23.7637 1.53179 23.4572 2.01853C22.9396 2.85397 22.8366 4.06358 23.0861 5.00191C23.5461 6.72903 24.1874 8.41548 24.7458 10.1131C24.8878 10.5443 25.0318 10.9929 25.2335 11.3984C25.3196 11.5711 25.5176 11.6863 25.6767 11.7834C25.311 10.7911 24.9395 9.53896 24.6249 8.51977C24.3014 7.47186 23.723 5.82977 23.5501 4.78724C23.4727 4.30626 23.4635 3.81672 23.5228 3.33316C23.5601 3.04178 23.745 1.90971 24.1964 2.12816C24.35 2.1902 24.2272 2.61357 24.1903 2.75035C23.7514 4.36685 24.423 5.99154 24.9197 7.56179C25.2349 8.57511 25.556 9.5865 25.8832 10.596C26.0035 11.0558 26.2724 11.7528 26.4964 12.1543C26.9775 12.3471 27.465 12.5246 27.9576 12.6864C26.4556 11.2213 26.5163 8.26595 28.5155 7.27504C29.2413 6.91458 30.0829 6.86635 30.8448 7.14151C31.1463 7.25143 31.7989 7.56313 31.6246 7.95858C31.2942 8.12446 30.9082 7.77563 30.5829 7.66148C30.4031 7.59842 30.2914 7.57564 30.1074 7.53668C30.286 7.663 30.5715 7.80648 30.7273 7.94675C31.7971 8.91057 32.1841 10.7006 31.4951 11.9821C31.0734 12.7666 30.539 13.0618 29.7507 13.3052C30.4606 13.5191 31.1784 13.7063 31.9025 13.8665C33.6947 12.7482 33.9918 10.5156 33.5442 8.65044C33.4243 8.15032 33.3546 7.51055 33.2748 6.99117L32.8992 4.43913C32.6227 2.53149 32.4572 1.0392 30.4642 0.188806ZM32.253 8.36331C32.7168 8.80211 32.9217 9.64481 32.942 10.2667C32.9641 10.9541 32.6863 12.333 31.9315 12.5513C31.8837 12.4994 31.772 12.396 31.8025 12.3154C32.0995 11.5375 32.405 11.1474 32.4016 10.2727C32.3992 9.72533 31.7839 8.72056 32.0216 8.39364C32.1369 8.34925 32.1288 8.35278 32.253 8.36331ZM28.2335 1.39449C28.8397 1.31241 29.4532 1.23893 30.0474 1.43227C30.7445 1.7113 31.2089 2.06399 31.5151 2.77435C31.765 3.35744 31.7704 4.01657 31.5297 4.60361C31.2856 5.216 30.7611 5.74485 30.1503 5.9685C29.1781 6.32459 27.7466 6.65119 26.7494 6.26274C25.4945 5.80121 24.9189 4.35235 25.3816 3.12475C25.8147 1.97569 27.1217 1.5451 28.2335 1.39449Z" fill="white"/>
<path d="M39.6623 2.21953C37.6157 1.63377 34.949 1.27621 32.8184 1.33967C33.1581 2.00244 33.2553 2.33352 33.4167 3.04622C36.2089 3.0255 38.4977 3.37804 41.1298 4.36691C46.0888 6.1914 50.121 9.90957 52.3406 14.7048C52.7127 15.5028 52.9946 16.3378 53.2393 17.1831C53.3909 17.7069 53.4861 18.2642 53.6806 18.7709C54.118 19.1573 55.2889 18.6952 55.262 18.4713C55.1377 17.4348 54.3891 15.4483 54.0059 14.5574C53.7633 13.9921 53.4947 13.4384 53.201 12.898C50.3022 7.57905 45.4323 3.91884 39.6623 2.21953Z" fill="white"/>
<path d="M37.103 12.6711C36.2903 12.419 35.007 12.1612 34.1571 11.965C34.0972 12.181 34.062 12.2729 33.9761 12.4742C34.1676 12.5172 34.358 12.5662 34.5466 12.6209C35.4151 12.8776 37.7059 13.5888 38.1122 14.4027C38.1832 14.5447 38.2018 14.7116 38.1431 14.8612C38.0625 15.0665 37.8624 15.19 37.6644 15.2638C35.7586 15.9736 27.6865 13.4583 25.7122 12.5272C24.4957 11.9535 24.5211 11.5619 24.0968 10.3708C22.9113 10.2899 21.8244 10.3838 20.6572 10.5826C22.2707 11.5575 24.8831 12.6052 26.7197 13.2229C27.573 13.5551 28.7648 13.9068 29.6522 14.1803C33.4528 15.3656 37.3423 16.2434 41.2835 16.8053C43.9251 17.203 46.737 17.522 49.4004 17.368C46.7529 15.3543 40.42 13.559 37.103 12.6711Z" fill="white"/>
<path d="M54.5537 30.2151C54.4246 30.2701 54.2094 30.6167 54.0611 30.756C53.0684 31.6883 51.6146 31.7157 50.4709 32.2727C48.6884 33.1407 46.863 34.9006 45.5369 36.3704C45.0953 36.8608 44.666 37.3625 44.2496 37.8749C43.8823 38.3339 43.4787 38.9254 43.0453 39.3098C42.715 39.6027 42.1754 39.405 41.7823 39.4833L41.7574 39.5302C42.0149 39.9393 42.9359 40.1282 43.331 39.776C43.8009 39.3571 44.1432 38.8248 44.5647 38.345C46.2308 36.4484 48.0394 34.4248 50.3495 33.316C51.4983 32.7812 52.6139 32.7928 53.7785 33.2521C54.7999 33.6668 55.8799 34.5353 56.5659 35.3871C58.2827 37.5188 58.8097 40.0437 57.9656 42.64C57.8151 43.0998 57.6325 43.5482 57.419 43.9823C57.3324 44.1569 57.0183 44.6583 57.0026 44.7797C56.9436 45.2367 56.9394 45.7617 56.8937 46.239C57.0845 45.9315 57.3718 45.5615 57.5917 45.2704C59.4807 42.7688 59.8137 39.529 58.7319 36.6183C58.1094 34.9434 57.6971 33.9219 58.4047 32.1643L58.3561 32.1495C57.5923 31.923 55.2285 30.6829 54.5537 30.2151Z" fill="white"/>
<path d="M52.1836 33.6724C51.11 33.6753 49.9557 34.2612 49.1124 34.9158C48.0792 35.7177 46.7883 36.8365 45.9709 37.865C45.7308 38.167 45.2709 39.2785 45.114 39.653C43.8802 42.597 42.8155 45.993 42.3306 49.1514C42.0589 50.9218 41.7703 53.79 42.9027 55.2539C43.3419 55.8219 43.8402 56.0937 44.5408 56.1926C43.1556 54.9855 43.0606 53.4891 43.1563 51.7508C43.2478 50.7243 43.4709 49.6306 43.7627 48.6396C44.6879 45.5273 45.7461 42.4407 47.1021 39.4847C47.7711 38.026 48.6608 36.0723 50.0883 35.2093C50.4923 34.965 51.1353 34.8593 51.5741 35.0344C53.2957 35.7218 54.7113 37.7235 55.5662 39.2993C55.0683 37.5013 54.4288 36.087 53.2104 34.6454C52.9178 34.2992 52.5769 33.9031 52.1836 33.6724Z" fill="white"/>
<path d="M44.1589 40.0593C43.9835 40.175 43.8293 40.3565 43.6548 40.4529C42.6265 41.0202 41.5782 40.6404 41.001 39.6997C40.0126 42.3896 39.152 45.1438 38.6931 48.0072C38.366 50.0476 37.8212 53.6792 39.0222 55.506C39.4416 56.1439 40.0848 56.3153 40.7843 56.425C40.3955 56.2331 40.0499 55.9643 39.7687 55.6345C38.7854 54.4851 38.6863 52.5734 38.797 51.1286C38.8133 50.4194 38.9451 49.2719 39.2354 48.6429C39.343 48.4097 41.1453 48.9297 41.1324 49.372C41.0676 51.5969 40.4708 54.4453 42.4641 56.02C42.2507 55.6072 41.9701 55.301 41.7726 54.7936C41.397 53.829 41.3204 52.6108 41.3621 51.5889C41.5213 47.6905 42.699 43.6536 44.1589 40.0593Z" fill="white"/>
<path d="M59.286 21.2552C59.0465 20.836 58.3807 20.4517 57.9503 20.2601C57.6386 20.1213 56.5149 19.4612 56.2778 19.4791C56.073 19.6561 56.0728 19.862 56.0645 20.1255C56.0182 21.6024 55.9567 23.0722 55.8338 24.5452C55.7894 25.0782 55.7438 25.6311 55.7634 26.1656C55.8394 27.1854 56.1913 28.1358 56.2 29.1673C56.5937 29.3766 58.9228 30.5852 59.2098 30.6297C59.6417 30.3235 58.9301 27.9163 58.9771 27.3167C58.946 26.9804 58.9878 26.4699 59.0081 26.1228C59.0803 25.5876 59.1345 24.7491 59.1701 24.1887C59.225 23.3251 59.3319 22.1001 59.286 21.2552Z" fill="white"/>
<path d="M46.4106 4.50701C50.0641 6.73844 53.513 11.1249 55.0063 15.124C55.1917 15.625 55.3696 16.1287 55.54 16.635C56.0781 18.2634 55.7612 18.5142 57.4931 19.173C57.8752 19.3183 58.4854 19.7893 58.889 19.8788C59.126 19.8246 59.1072 19.5887 59.0666 19.3849C57.7036 12.5523 52.6225 7.33085 46.4887 4.38078L46.4106 4.50701Z" fill="white"/>
<path d="M50.5294 19.5186C50.1001 19.5888 49.7035 19.6431 49.2686 19.6712C46.6785 19.838 44.0051 19.5979 41.4385 19.252C35.218 18.4137 29.0061 16.834 23.2115 14.4031C22.0308 13.9077 19.7927 12.8804 18.8268 12.0447C18.7323 12.2578 18.5698 12.4806 18.5404 12.6971C18.5321 12.7579 18.5998 12.8097 18.6509 12.87C20.6595 14.6018 24.5975 16.0342 27.094 16.8713C32.4279 18.6738 37.9459 19.8755 43.5461 20.4542C45.4859 20.6399 48.5865 20.7968 50.4806 20.2427C50.48 20.0011 50.5074 19.7595 50.5294 19.5186Z" fill="white"/>
<path d="M51.4453 17.7415C49.5704 18.3806 46.727 18.1974 44.7461 18.023C41.3528 17.702 37.9868 17.1391 34.6735 16.3385C29.8585 15.219 24.8946 13.7025 20.5064 11.3799C19.8193 11.0162 19.2105 10.5965 18.7081 9.99755C18.6534 10.2785 18.5279 10.5343 18.6272 10.7887C20.0545 12.9589 28.5965 15.7085 31.3125 16.4218C36.9063 17.8909 43.0228 19.1677 48.8278 18.9625C49.5174 18.9381 50.4412 18.8328 51.054 18.5191C51.3242 18.3845 51.3743 18.0121 51.4453 17.7415Z" fill="white"/>
<path d="M56.1259 44.0569C55.8159 41.0611 54.5257 38.3743 52.2393 36.3645C51.2 35.4039 50.262 35.7341 49.511 36.8252C47.7847 39.3337 46.6781 42.428 45.6805 45.2936C44.7812 47.8765 43.77 50.5426 44.0187 53.3092C44.2502 55.8835 46.9583 56.207 48.8669 55.2342C47.8513 55.3473 46.5795 55.4747 45.7207 54.7982C45.1362 54.3377 44.8792 53.6124 44.8069 52.8936C44.7377 52.2047 44.8209 51.4922 44.947 50.8147C45.5286 47.6926 48.3319 39.8236 50.2686 37.4539C50.4833 37.1912 50.7671 36.8882 51.123 36.8517C51.4844 36.8147 51.8043 37.0449 52.063 37.2704C54.0591 39.0102 55.3494 41.6324 55.8493 44.2064C55.9396 44.7328 55.9891 45.2651 55.9975 45.7989C55.9998 46.1437 55.9706 46.5576 56.015 46.891C56.2106 45.9951 56.1661 44.9643 56.1259 44.0569Z" fill="white"/>
<path d="M9.2033 56.7849L9.18595 56.7984C9.19319 56.8211 9.19998 56.8442 9.20721 56.8669C10.3295 58.5549 13.4563 60.2962 15.0832 61.0061C18.5463 62.5164 22.0471 63.5555 25.6921 64.1509C28.5396 64.6165 33.0566 65.0522 35.7489 64.0261C36.0981 63.8854 36.3109 63.7751 36.6397 63.5989C34.519 63.9439 31.4769 63.7111 29.3372 63.4916C22.4964 62.7889 14.9173 60.7503 9.2033 56.7849Z" fill="white"/>
<path d="M54.0756 29.8188C53.9718 29.619 53.7556 29.0903 53.6302 28.9969C53.3708 29.0099 52.7203 29.8194 52.2045 30.0859C51.365 30.5197 50.3101 30.5279 49.5896 30.877C47.0969 32.1141 45.1627 34.2947 43.2464 36.264C42.8288 36.6931 41.6969 37.908 41.6859 38.4918C41.6776 38.9306 42.5231 39.0783 42.8857 38.6301C44.1894 37.0175 45.4881 35.394 47.0455 34.0115C48.1417 33.0381 49.3077 32.0437 50.707 31.5371C51.2801 31.3223 52.1154 31.1525 52.6216 30.9231C53.2198 30.735 53.7338 30.3445 54.0756 29.8188Z" fill="white"/>
<path d="M5.05057 27.8534C4.61881 27.8997 4.24297 27.9117 3.82487 27.758C3.70325 27.7304 3.39286 27.5176 3.30929 27.478C3.21637 27.4342 2.93307 28.3304 2.90166 28.4178C2.25903 30.1888 1.79148 32.0104 1.43634 33.8598C1.40058 34.0465 1.36646 34.2568 1.31999 34.4386C1.63863 34.5745 2.35085 34.8238 2.56213 35.0609C2.65399 35.3581 2.30114 38.182 2.27627 38.7832C2.23642 39.7887 2.33871 40.7949 2.57995 41.7717L2.68545 41.7672C2.37991 37.206 3.39839 32.1051 5.05057 27.8534Z" fill="white"/>
<path d="M22.331 3.20943C21.8036 3.37208 21.1713 3.68866 20.6718 3.93045C18.4802 4.98865 16.552 6.44224 14.7803 8.099C14.2276 8.61572 14.138 8.8663 14.7154 9.35257C14.8305 9.42393 15.0344 9.55322 15.1542 9.60465C15.193 9.6215 15.2336 9.63267 15.2756 9.63809C15.7541 9.69639 16.4688 8.67942 16.8424 8.34087C18.3991 6.92964 20.3539 5.54181 22.3418 4.82044C22.2551 4.21866 22.2662 3.80813 22.331 3.20943Z" fill="white"/>
<path d="M13.6553 9.58348C13.3368 9.5893 12.8896 10.6772 12.7309 10.9565C11.9832 12.2727 11.5353 13.8773 10.5729 15.0452C10.0288 15.7052 9.01973 16.0584 8.51802 16.7735C8.33329 17.0367 8.42135 17.3031 8.48188 17.5904C8.7365 17.5782 8.99127 17.5636 9.24583 17.5468C9.37485 17.5383 9.9643 17.5014 10.0636 17.468C11.764 16.8948 12.5926 14.3868 13.3855 12.9246C13.8899 11.9944 14.1765 11.4172 14.7274 10.5834C14.3676 10.2527 14.0101 9.91929 13.6553 9.58348Z" fill="white"/>
<path d="M45.9823 30.7574C44.4256 31.4962 43.3299 32.9505 42.3649 34.3294C40.9719 36.3201 39.9836 38.5173 39.1709 40.8016C38.77 41.9007 38.4279 43.0202 38.1461 44.1555C37.4918 46.8411 36.5315 52.4868 37.7378 54.9988C37.9386 55.4166 38.2067 55.759 38.5391 56.0791C38.4505 55.8806 38.3318 55.7201 38.2315 55.5292C38.0031 55.1029 37.8378 54.646 37.7409 54.1721C36.9827 50.5603 38.6333 44.4055 39.762 40.9351C40.7812 37.8014 43.1618 32.8869 45.9989 31.0227L45.9823 30.7574Z" fill="white"/>
<path d="M10.6628 21.3529C10.1122 21.5603 9.64821 21.7926 9.23364 22.2301C7.79348 23.3154 6.30012 26.5293 5.68644 28.2071C4.30028 31.9976 1.86431 40.9615 4.51679 44.4563L4.54571 44.4941C2.734 40.2321 4.57066 33.3975 6.00991 29.2033C6.74698 27.056 8.07084 24.0847 9.54654 22.353C9.93198 21.9417 10.2275 21.6984 10.6628 21.3529Z" fill="white"/>
<path d="M55.363 19.442C55.1607 19.448 54.8682 19.5402 54.6677 19.5956C54.0084 19.775 53.7888 19.9724 53.8297 20.6786C53.9531 22.8107 54.0152 24.9495 54.1072 27.0807C54.1263 27.5239 54.3658 28.5657 54.5093 28.9753C54.6531 29.2478 54.8944 29.584 55.2959 29.3739C55.4214 29.3083 55.5275 29.0361 55.5199 28.8921C55.4909 28.0278 55.1649 27.1314 55.0967 26.2748C55.0377 25.5352 55.1685 24.6383 55.2174 23.8839C55.3143 22.3903 55.393 20.9394 55.363 19.442Z" fill="white"/>
<path d="M9.96409 18.2668C9.43697 18.2698 8.89296 18.3135 8.36795 18.3545C7.93304 19.6924 7.32554 19.5954 6.38183 20.4194C5.52532 21.1675 4.77516 22.4247 4.33554 23.469C4.12717 23.963 3.44331 25.6351 3.57535 26.1019C3.71504 26.2083 3.82984 26.2777 4.00914 26.2879C4.64094 26.3339 4.82436 25.871 5.01411 25.3667C5.81367 23.2446 6.64165 20.8005 8.71261 19.5877C9.39216 19.1896 9.88898 19.1723 9.96409 18.2668Z" fill="white"/>
<path d="M37.5541 10.4455C36.514 10.1841 35.4709 9.93465 34.4253 9.6975L34.4333 10.2602C36.854 10.781 39.245 11.4296 41.5969 12.2033C44.0351 12.9861 47.3831 14.1705 49.5585 15.5428C49.9317 15.7575 50.2566 15.9991 50.5895 16.2708C50.8042 16.4461 51.1196 16.9785 51.3001 17.0102C52.8731 16.1932 46.9323 13.6344 46.4711 13.4378C43.5806 12.2113 40.5993 11.2109 37.5541 10.4455Z" fill="white"/>
<path d="M37.0156 11.2741C36.1594 11.042 35.2796 10.8514 34.4138 10.6543C34.4019 10.8904 34.377 11.0425 34.3392 11.275C37.693 12.0075 40.9978 12.9484 44.2343 14.0923C45.8562 14.6783 47.4932 15.319 48.9861 16.1892C49.5345 16.5413 49.8946 16.7991 50.3562 17.252C50.5074 17.2394 50.6736 17.2028 50.8242 17.1742C50.2876 16.3676 48.9967 15.6707 48.1251 15.2259C44.6457 13.4505 40.7819 12.2727 37.0156 11.2741Z" fill="white"/>
<path d="M12.3038 18.4881C11.7484 18.4248 11.2123 18.2994 10.6683 18.2463C10.6 20.1023 9.30185 19.6341 8.13357 20.7959C7.02208 21.8632 6.4195 23.3794 5.86975 24.7806C5.52801 25.6506 5.28165 27.0291 4.08696 26.8916C3.96968 26.878 3.82579 26.8523 3.71898 26.8963C4.08414 27.1847 4.47474 27.2121 4.92499 27.1282C5.82778 26.9603 5.93763 25.9856 6.17404 25.2357C6.81223 23.212 7.98187 20.855 10.2089 20.271C10.7281 20.1348 11.2444 20.2002 11.7644 20.2757C11.909 19.6697 12.0893 19.0729 12.3038 18.4881Z" fill="white"/>
<path d="M2.7528 26.0132C2.77036 25.8598 2.7949 25.6867 2.80639 25.5347L2.55575 25.9875C2.52558 26.0374 2.49678 26.0879 2.46899 26.1391C0.863388 29.0207 -0.0162234 32.7317 0.000196256 36.0271C0.00370521 36.7315 0.0502045 37.6744 0.238732 38.3357C0.275367 36.0089 0.859525 32.9237 1.46581 30.6809C1.69822 29.8235 1.96189 28.9746 2.25603 28.1361C2.4223 27.6712 2.66261 27.1845 2.78497 26.7096C2.79943 26.6534 2.75592 26.1196 2.7528 26.0132Z" fill="white"/>
<path d="M30.7475 9.00224C29.9583 8.8326 28.8448 8.71083 28.0231 8.60076C27.6615 9.05029 27.6124 9.44356 27.5739 9.98744C27.7552 10.0216 27.9518 10.0475 28.135 10.0753C29.1565 10.2383 30.1748 10.421 31.1893 10.6232C31.1607 9.99432 31.0666 9.55467 30.7475 9.00224Z" fill="white"/>
<path d="M54.4911 34.5158C54.3944 34.4854 54.4309 34.4887 54.3286 34.4976C54.3192 34.6306 54.5878 35.0199 54.6733 35.1525C55.5436 36.5028 55.9982 37.9302 56.4254 39.4656L56.4451 39.5261L56.4764 39.5342C56.7252 38.5849 56.7268 37.2066 56.2555 36.3159C55.868 35.5839 55.1648 34.9786 54.4911 34.5158Z" fill="white"/>
<path d="M39.764 49.289C39.717 49.2718 39.6566 49.2579 39.6071 49.2446L39.5655 49.2914C39.3722 50.8711 39.1815 52.852 39.7253 54.3778C39.9989 55.1461 40.4711 55.5574 41.1934 55.8879C41.261 55.9082 41.2858 55.9087 41.356 55.9184C41.3291 55.8504 41.0308 55.571 40.9531 55.4952C39.628 54.2006 39.8131 52.1855 39.9296 50.495C39.9526 50.1608 40.0472 49.8362 40.0583 49.4831C39.9936 49.3706 39.8877 49.3447 39.764 49.289Z" fill="white"/>
<path d="M1.55424 35.3043C1.33978 35.2681 1.22228 35.2522 1.17648 35.5168C0.964767 36.7425 0.778355 38.3801 1.01093 39.6019C1.10544 40.0964 1.27972 40.5722 1.52713 41.0106C1.59955 41.1119 1.55299 41.0856 1.65225 41.1237C1.63909 40.9384 1.52569 40.5287 1.49324 40.2811C1.40754 39.6331 1.38815 39.0734 1.40701 38.4248C1.42458 37.8463 1.46989 37.2687 1.54233 36.6944C1.58707 36.3309 1.68406 35.871 1.7218 35.4966C1.7291 35.4238 1.62286 35.3619 1.55424 35.3043Z" fill="white"/>
<path d="M57.4722 38.7109L57.3296 38.6501C57.1586 39.8404 57.1161 40.4033 56.5779 41.4955C56.7135 42.1753 56.804 42.6531 56.8884 43.3399C57.7294 41.6273 57.767 40.5157 57.4722 38.7109Z" fill="white"/>
<path d="M23.4258 8.31648C23.3645 8.31042 23.3033 8.3055 23.2419 8.30159C22.2403 8.23887 19.7784 8.29951 19.0272 8.96762C19.0578 9.17131 19.0654 9.22165 19.1414 9.41133C19.1466 9.41352 19.2465 9.44255 19.2531 9.43902C20.5344 8.72258 22.0707 8.7082 23.5312 8.71338L23.4258 8.31648Z" fill="white"/>
<path d="M23.6942 9.12523C22.9693 9.03301 19.9197 9.2425 19.557 9.7924C19.5979 9.90082 19.7072 9.95437 19.8083 10.025C19.9695 10.1101 20.5236 9.86705 20.7699 9.82371C21.8284 9.63804 22.786 9.62788 23.8508 9.64665L23.6942 9.12523Z" fill="white"/>
<path d="M55.9502 29.721C55.8225 29.8292 55.7084 29.9117 55.5739 30.0096C56.1645 30.3332 57.9503 31.2914 58.5151 31.4587C58.6799 31.3783 58.8192 31.2747 58.9704 31.1709C58.0457 30.8577 56.8872 30.1172 55.9502 29.721Z" fill="white"/>
<path d="M31.0802 11.1199C30.2635 10.9274 28.4548 10.6152 27.6468 10.5441L27.7388 11.0397L27.766 11.1055C27.7975 11.1199 28.6339 11.1174 28.7605 11.1291C29.4855 11.1966 30.1747 11.3429 30.8724 11.542C30.9706 11.4424 31.0412 11.252 31.0802 11.1199Z" fill="white"/>
<path d="M30.5628 12.1146C29.5899 11.8479 29.0394 11.7512 28.0204 11.7537C28.0983 11.8531 28.2119 11.9744 28.2975 12.0718C28.9967 12.6894 29.8756 12.8504 30.5628 12.1146Z" fill="white"/>
<path d="M47.0863 31.3609C46.2848 31.5568 44.9947 32.6798 44.5724 33.3424C44.5503 33.4664 44.5127 33.5728 44.5615 33.6823C44.7106 33.6772 44.7189 33.5704 44.8838 33.5143C44.8888 33.5121 46.9161 31.7302 47.0086 31.6364C47.0351 31.5447 47.0611 31.4529 47.0863 31.3609Z" fill="white"/>
<path d="M17.9017 11.311C17.5194 11.5851 17.7031 11.578 17.1165 11.8437C17.0407 12.7151 16.048 13.7058 16.0372 14.0405C16.6385 13.5804 18.1606 12.173 17.9017 11.311Z" fill="white"/>
<path d="M44.8838 33.5143C44.7189 33.5704 44.7106 33.6772 44.5615 33.6823C44.5127 33.5728 44.5503 33.4664 44.5724 33.3424C44.0809 33.8709 43.6555 34.5382 43.2748 35.1499C43.6026 34.8448 43.9241 34.4925 44.2424 34.1729C44.3913 34.0233 44.7675 33.6658 44.8838 33.5143Z" fill="white"/>
<path d="M47.4489 30.5037C46.8122 30.4536 46.584 30.545 45.9823 30.7574L45.9989 31.0227C46.5488 30.7525 46.8677 30.6596 47.4489 30.5037Z" fill="white"/>
<path d="M46.4887 4.38078C46.2612 4.28523 46.0286 4.18257 45.7961 4.10128L46.4106 4.50701L46.4887 4.38078Z" fill="white"/>
<path d="M47.5788 31.2364C47.4047 31.2753 47.2573 31.3065 47.0863 31.3609C47.0611 31.4529 47.0351 31.5447 47.0086 31.6364L47.5788 31.2364Z" fill="white"/>
<path d="M2.74955 42.2705C2.73477 42.0857 2.72963 41.9491 2.68545 41.7672L2.57995 41.7717C2.63094 41.9491 2.68626 42.0983 2.74955 42.2705Z" fill="white"/>
<path d="M57.4722 38.7109C57.4485 38.6049 57.4309 38.4509 57.3579 38.3805C57.3245 38.4937 57.3299 38.5347 57.3296 38.6501L57.4722 38.7109Z" fill="white"/>
</svg>
