<svg width="171" height="25" viewBox="0 0 171 25" fill="none" xmlns="http://www.w3.org/2000/svg">
<path d="M11.886 24.4474C10.6029 24.4474 9.51108 23.6595 8.61063 22.0837C7.73268 20.4854 7.06859 18.178 6.61836 15.1615C6.50581 14.4636 6.37074 13.6419 6.21316 12.6965C6.07809 11.7285 5.94302 10.7942 5.80795 9.89378C5.67288 8.99332 5.54907 8.19417 5.43651 7.49631C5.32396 6.79846 5.24517 6.34823 5.20014 6.14562C5.08759 5.56033 4.80619 5.26768 4.35596 5.26768C3.88322 5.26768 3.5343 5.61661 3.30918 6.31446C3.10658 6.9898 3.00528 7.83398 3.00528 8.847C3.00528 9.97257 3.12909 11.0081 3.37672 11.9536C3.62434 12.8991 3.90574 13.7883 4.2209 14.6212C4.55857 15.4541 4.87373 16.2533 5.16638 17.0187C5.48154 17.784 5.69539 18.5494 5.80795 19.3148C5.94302 20.0577 5.93177 20.8343 5.77419 21.6448C5.61661 22.4327 5.23391 23.2768 4.6261 24.1773H0V24.1098C0.405206 23.3444 0.697855 22.3989 0.877946 21.2733C1.08055 20.1252 1.18185 18.6732 1.18185 16.9174V8.03659C1.18185 6.82097 1.30566 5.71791 1.55329 4.7274C1.80092 3.7369 2.14984 2.89272 2.60007 2.19487C3.07281 1.49701 3.62434 0.956735 4.25466 0.57404C4.88498 0.191347 5.57158 0 6.31446 0C6.89976 0 7.44003 0.146325 7.93528 0.438974C8.45305 0.731621 8.91453 1.13683 9.31974 1.65459C9.72494 2.17235 10.0626 2.79142 10.3328 3.51178C10.6254 4.23215 10.8393 5.0088 10.9743 5.84172L12.7978 17.4239C12.8653 17.9416 13.0229 18.2005 13.2705 18.2005C13.338 18.2005 13.4056 18.1892 13.4731 18.1667C13.5631 18.1217 13.6419 18.0317 13.7095 17.8966C13.777 17.7615 13.8333 17.5589 13.8783 17.2888C13.9233 17.0187 13.9458 16.6585 13.9458 16.2082C13.9458 15.4879 13.9346 14.4636 13.9121 13.1354C13.8896 11.7847 13.8783 10.0851 13.8783 8.03659C13.8783 6.91101 14.0246 5.86423 14.3173 4.89624C14.6099 3.90574 15.0151 3.0503 15.5329 2.32993C16.0507 1.60957 16.6472 1.04678 17.3226 0.641576C18.0204 0.213859 18.7745 0 19.585 0C21.2058 0 22.4327 0.70911 23.2656 2.12733C24.121 3.54555 24.5487 5.5153 24.5487 8.03659V16.9174C24.5487 18.6732 24.6388 20.1252 24.8189 21.2733C25.0215 22.3989 25.3254 23.3444 25.7306 24.1098V24.1773H19.6863C19.236 24.1773 18.7971 23.9972 18.3693 23.637C17.9416 23.2543 17.649 22.8041 17.4914 22.2863C17.2213 21.2958 17.1537 20.4179 17.2888 19.6525C17.4239 18.8646 17.6265 18.0092 17.8966 17.0862C18.1892 16.1632 18.4706 15.0827 18.7408 13.8445C19.0109 12.6064 19.146 11.0306 19.146 9.11714C19.146 8.62188 19.1122 8.13789 19.0447 7.66515C18.9997 7.19241 18.8984 6.7872 18.7408 6.44953C18.6057 6.08935 18.4256 5.80795 18.2005 5.60535C17.9754 5.38024 17.694 5.26768 17.3563 5.26768C16.8386 5.26768 16.4446 5.68414 16.1745 6.51706C15.9043 7.34999 15.7468 8.7457 15.7017 10.7042C15.6792 11.5371 15.6905 12.5839 15.7355 13.8445C15.7805 15.1052 15.803 16.5572 15.803 18.2005C15.803 20.3166 15.4429 21.8924 14.7225 22.9279C14.0021 23.9409 13.0566 24.4474 11.886 24.4474Z" fill="#F26D4A"/>
<path d="M36.3074 24.7176C34.9567 24.7176 33.6848 24.4137 32.4917 23.8059C31.2986 23.1755 30.2518 22.3201 29.3513 21.2395C28.4509 20.159 27.7192 18.8871 27.1565 17.4239C26.6162 15.9606 26.3123 14.3848 26.2447 12.6965C26.1772 10.9856 26.3686 9.37602 26.8188 7.86775C27.269 6.35948 27.9106 5.05382 28.7435 3.95076C29.5764 2.82519 30.5669 1.94724 31.715 1.31692C32.8631 0.664087 34.1012 0.337671 35.4294 0.337671C36.1723 0.337671 36.8476 0.382694 37.4554 0.47274C38.0858 0.540274 38.7048 0.607808 39.3126 0.675343C39.9204 0.742877 40.5508 0.765389 41.2036 0.742878C41.8564 0.720366 42.588 0.607808 43.3985 0.405205C43.7361 0.337671 43.9725 0.461485 44.1076 0.776645C44.3777 1.58706 44.5015 2.34119 44.479 3.03904C44.4565 3.71439 44.3102 4.31094 44.04 4.8287C43.7699 5.32396 43.3759 5.71791 42.8582 6.01055C42.3404 6.3032 41.7101 6.44953 40.9672 6.44953C40.1568 6.44953 39.3914 6.35948 38.6711 6.17939C37.9507 5.9993 37.2641 5.76293 36.6113 5.47028C35.9584 5.17763 35.3168 4.85122 34.6865 4.49103C34.0787 4.10834 33.4822 3.7369 32.8969 3.37672C32.6042 3.19662 32.2665 3.14035 31.8839 3.20788C31.5237 3.27541 31.1747 3.47802 30.8371 3.81569C30.4994 4.13085 30.218 4.58108 29.9929 5.16638C29.7678 5.75167 29.6552 6.46079 29.6552 7.29371C29.6552 8.847 29.8578 10.2877 30.263 11.6159C30.6907 12.9441 31.276 14.0922 32.0189 15.0602C32.7843 16.0281 33.6848 16.7823 34.7203 17.3226C35.7558 17.8628 36.8927 18.133 38.1308 18.133C38.7836 18.133 39.3689 17.9979 39.8867 17.7278C40.4269 17.4576 40.8772 17.0862 41.2374 16.6134C41.5975 16.1407 41.8677 15.5892 42.0478 14.9589C42.2504 14.3285 42.3517 13.6532 42.3517 12.9328C42.3517 12.7752 42.3179 12.6289 42.2504 12.4939C42.1828 12.3363 42.0928 12.235 41.9802 12.1899C41.8902 12.1224 41.7776 12.1224 41.6426 12.1899C41.5075 12.2575 41.3837 12.4263 41.2711 12.6965C40.7309 13.8671 40.2131 14.8125 39.7178 15.5329C39.2451 16.2533 38.581 16.6134 37.7256 16.6134C37.0277 16.6134 36.3861 16.4559 35.8008 16.1407C35.2155 15.803 34.7316 15.3866 34.3489 14.8913C33.9887 14.3736 33.741 13.7995 33.606 13.1692C33.4934 12.5389 33.5384 11.9311 33.7411 11.3458C33.8761 10.9631 34.1012 10.7267 34.4164 10.6367C34.7541 10.5241 35.1368 10.4903 35.5645 10.5354C35.9922 10.5804 36.4537 10.6592 36.9489 10.7717C37.4442 10.8618 37.9282 10.9068 38.4009 10.9068C38.9862 10.9068 39.459 10.873 39.8191 10.8055C40.2018 10.738 40.517 10.6592 40.7646 10.5691C41.0348 10.4791 41.2824 10.4003 41.5075 10.3328C41.7326 10.2652 42.0027 10.2315 42.3179 10.2315C42.9932 10.2315 43.5223 10.7154 43.905 11.6834C44.2877 12.6289 44.479 13.9121 44.479 15.5329C44.479 16.816 44.2651 18.0204 43.8374 19.146C43.4322 20.249 42.8582 21.217 42.1153 22.05C41.3724 22.8829 40.5057 23.5357 39.5152 24.0085C38.5247 24.4812 37.4554 24.7176 36.3074 24.7176Z" fill="#F26D4A"/>
<path d="M55.2797 24.3799C52.826 24.3799 51.6667 24.1548 51.8017 23.7046L53.4226 17.3226C53.5351 16.9399 53.7602 16.8386 54.0979 17.0187C54.8633 17.3563 55.6287 17.6265 56.3941 17.8291C57.182 18.0317 57.9248 18.133 58.6227 18.133C58.9604 18.133 59.208 18.0879 59.3656 17.9979C59.5457 17.8853 59.6357 17.7615 59.6357 17.6265C59.6582 17.4914 59.5907 17.3563 59.4331 17.2213C59.298 17.0637 59.0842 16.9399 58.7915 16.8498L55.8538 15.9043C54.5706 15.4991 54.1204 14.5536 54.5031 13.0679L55.8876 7.59761C56.3153 5.90925 56.6192 4.51354 56.7993 3.41048C56.9794 2.30742 56.8668 1.3732 56.4616 0.607809V0.540274L67.3009 0.57404V0.641576C66.8957 1.40696 66.7606 2.35245 66.8957 3.47802C67.0532 4.58108 67.3234 5.97679 67.7061 7.66515L69.8672 17.0862C70.2499 18.7745 70.7001 20.1815 71.2178 21.3071C71.7581 22.4101 72.2309 23.3444 72.6361 24.1098V24.1773H64.1605V24.1098C64.5657 23.3444 64.6895 22.4101 64.532 21.3071C64.3744 20.1815 64.1042 18.7745 63.7215 17.0862L61.9319 9.21844C61.6392 7.91277 61.2903 6.96729 60.8851 6.382C60.4799 5.77419 60.0747 5.44777 59.6695 5.40275C59.2643 5.35772 58.8928 5.53782 58.5552 5.94302C58.2175 6.34823 57.9586 6.8885 57.7785 7.56385L56.5967 12.2237C56.4166 12.8765 56.4053 13.3718 56.5629 13.7095C56.7205 14.0471 57.0694 14.3173 57.6097 14.5199L59.163 15.1277C59.7483 15.3528 60.2548 15.5892 60.6825 15.8368C61.1327 16.0619 61.5042 16.3321 61.7968 16.6472C62.112 16.9399 62.3371 17.2888 62.4722 17.694C62.6297 18.0992 62.7085 18.5719 62.7085 19.1122C62.7085 19.9001 62.5172 20.6205 62.1345 21.2733C61.7518 21.9036 61.2228 22.4552 60.5474 22.9279C59.8721 23.3781 59.0842 23.7383 58.1837 24.0085C57.2833 24.2561 56.3153 24.3799 55.2797 24.3799Z" fill="#F26D4A"/>
<path d="M82.8691 24.7176C81.5184 24.7176 80.2465 24.4137 79.0534 23.8059C77.8603 23.1755 76.8135 22.3201 75.9131 21.2395C75.0126 20.159 74.281 18.8871 73.7182 17.4239C73.1779 15.9606 72.874 14.3848 72.8065 12.6965C72.739 10.9856 72.9303 9.37602 73.3805 7.86775C73.8308 6.35948 74.4723 5.05382 75.3053 3.95076C76.1382 2.82519 77.1287 1.94724 78.2768 1.31692C79.4249 0.664087 80.663 0.337671 81.9912 0.337671C82.734 0.337671 83.4094 0.382694 84.0172 0.47274C84.6475 0.540274 85.2666 0.607808 85.8744 0.675343C86.4822 0.742877 87.1125 0.765389 87.7653 0.742878C88.4182 0.720366 89.1498 0.607808 89.9602 0.405205C90.2979 0.337671 90.5342 0.461485 90.6693 0.776645C90.9395 1.58706 91.0633 2.34119 91.0408 3.03904C91.0182 3.71439 90.8719 4.31094 90.6018 4.8287C90.3316 5.32396 89.9377 5.71791 89.4199 6.01055C88.9022 6.3032 88.2719 6.44953 87.529 6.44953C86.7186 6.44953 85.9532 6.35948 85.2328 6.17939C84.5124 5.9993 83.8258 5.76293 83.173 5.47028C82.5202 5.17763 81.8786 4.85122 81.2483 4.49103C80.6405 4.10834 80.0439 3.7369 79.4586 3.37672C79.166 3.19662 78.8283 3.14035 78.4456 3.20788C78.0854 3.27541 77.7365 3.47802 77.3988 3.81569C77.0612 4.13085 76.7798 4.58108 76.5546 5.16638C76.3295 5.75167 76.217 6.46079 76.217 7.29371C76.217 8.847 76.4196 10.2877 76.8248 11.6159C77.2525 12.9441 77.8378 14.0922 78.5807 15.0602C79.3461 16.0281 80.2465 16.7823 81.2821 17.3226C82.3176 17.8628 83.4544 18.133 84.6925 18.133C85.3454 18.133 85.9307 17.9979 86.4484 17.7278C86.9887 17.4576 87.4389 17.0862 87.7991 16.6134C88.1593 16.1407 88.4294 15.5892 88.6095 14.9589C88.8121 14.3285 88.9134 13.6532 88.9134 12.9328C88.9134 12.7752 88.8797 12.6289 88.8121 12.4939C88.7446 12.3363 88.6545 12.235 88.542 12.1899C88.4519 12.1224 88.3394 12.1224 88.2043 12.1899C88.0692 12.2575 87.9454 12.4263 87.8329 12.6965C87.2926 13.8671 86.7748 14.8125 86.2796 15.5329C85.8068 16.2533 85.1428 16.6134 84.2873 16.6134C83.5895 16.6134 82.9479 16.4559 82.3626 16.1407C81.7773 15.803 81.2933 15.3866 80.9106 14.8913C80.5504 14.3736 80.3028 13.7995 80.1677 13.1692C80.0552 12.5389 80.1002 11.9311 80.3028 11.3458C80.4379 10.9631 80.663 10.7267 80.9781 10.6367C81.3158 10.5241 81.6985 10.4903 82.1262 10.5354C82.5539 10.5804 83.0154 10.6592 83.5107 10.7717C84.0059 10.8618 84.4899 10.9068 84.9627 10.9068C85.548 10.9068 86.0207 10.873 86.3809 10.8055C86.7636 10.738 87.0788 10.6592 87.3264 10.5691C87.5965 10.4791 87.8441 10.4003 88.0693 10.3328C88.2944 10.2652 88.5645 10.2315 88.8797 10.2315C89.555 10.2315 90.084 10.7154 90.4667 11.6834C90.8494 12.6289 91.0408 13.9121 91.0408 15.5329C91.0408 16.816 90.8269 18.0204 90.3992 19.146C89.994 20.249 89.4199 21.217 88.6771 22.05C87.9342 22.8829 87.0675 23.5357 86.077 24.0085C85.0865 24.4812 84.0172 24.7176 82.8691 24.7176Z" fill="#F26D4A"/>
<path d="M97.9469 24.1773C97.159 24.1773 96.4499 24.0647 95.8196 23.8396C95.1893 23.6145 94.649 23.3106 94.1988 22.9279C93.7485 22.5227 93.3996 22.05 93.152 21.5097C92.9044 20.9469 92.7806 20.3391 92.7806 19.6863C92.7806 18.1105 93.5009 16.7147 94.9417 15.4991C96.3824 14.261 98.566 13.1579 101.492 12.1899C101.695 12.1224 101.841 12.0324 101.931 11.9198C102.021 11.7847 102.044 11.6609 101.999 11.5484C101.976 11.4358 101.875 11.3458 101.695 11.2782C101.538 11.2107 101.312 11.1882 101.02 11.2107C100.412 11.2557 99.6128 11.4921 98.6223 11.9198C97.6543 12.325 96.63 12.8315 95.5495 13.4393C94.6715 13.9571 94.0412 14.1034 93.6585 13.8783C93.2983 13.6307 93.1182 13.0341 93.1182 12.0886V7.80022C93.1182 6.04432 93.0169 4.60359 92.8143 3.47802C92.6342 2.32993 92.3416 1.3732 91.9364 0.607809V0.540274H108.313V6.44953C108.313 6.9898 108.043 7.16989 107.503 6.9898C106.918 6.7872 106.321 6.59585 105.713 6.41576C105.106 6.23567 104.509 6.07809 103.924 5.94302C103.361 5.78544 102.821 5.67288 102.303 5.60535C101.808 5.5153 101.391 5.47028 101.054 5.47028C100.333 5.47028 99.7478 5.63912 99.2976 5.97679C98.8474 6.29195 98.6223 6.73092 98.6223 7.29371V8.44179C98.6223 8.98207 98.7461 9.35351 98.9937 9.55611C99.2413 9.7362 99.5452 9.8375 99.9054 9.86001C100.288 9.88252 100.705 9.86001 101.155 9.79248C101.605 9.72494 102.033 9.69118 102.438 9.69118C103.091 9.69118 103.62 9.8375 104.025 10.1302C104.43 10.4228 104.633 10.8167 104.633 11.312C104.633 11.7622 104.475 12.1449 104.16 12.4601C103.845 12.7752 103.305 13.1017 102.539 13.4393C100.896 14.1372 99.7366 14.7112 99.0612 15.1615C98.4084 15.6117 98.082 16.0619 98.082 16.5121C98.082 16.7598 98.172 16.9849 98.3521 17.1875C98.5547 17.3676 98.8136 17.5364 99.1288 17.694C99.4665 17.8291 99.8379 17.9416 100.243 18.0317C100.648 18.0992 101.065 18.133 101.492 18.133C102.573 18.133 103.62 18.0204 104.633 17.7953C105.646 17.5477 106.591 17.1987 107.469 16.7485C107.762 16.5909 107.976 16.5347 108.111 16.5797C108.246 16.6022 108.313 16.771 108.313 17.0862V24.1773H97.9469Z" fill="#F26D4A"/>
<path d="M124.896 24.3799C123.612 24.3799 122.509 23.9634 121.586 23.1305C120.686 22.2976 120.134 21.1608 119.932 19.72L118.919 12.8315C118.153 7.54133 117.129 4.89624 115.846 4.89624C115.396 4.89624 115.013 5.13261 114.698 5.60535C114.383 6.05558 114.225 6.61837 114.225 7.29371C114.225 8.14914 114.428 8.97081 114.833 9.75871C115.261 10.5241 115.722 11.357 116.217 12.2575C116.735 13.1579 117.197 14.171 117.602 15.2965C118.03 16.3996 118.243 17.7053 118.243 19.2135C118.243 20.9019 118.007 22.1513 117.534 22.9617C117.062 23.7721 116.285 24.1773 115.204 24.1773H108.721V24.1098C109.171 23.637 109.576 23.0405 109.937 22.3201C110.297 21.5997 110.601 20.8231 110.848 19.9902C111.118 19.1347 111.321 18.2568 111.456 17.3563C111.614 16.4334 111.693 15.5442 111.693 14.6887C111.693 13.7657 111.625 12.8878 111.49 12.0549C111.355 11.222 111.209 10.4115 111.051 9.62364C110.893 8.83574 110.747 8.0591 110.612 7.29371C110.477 6.50581 110.409 5.70665 110.409 4.89624C110.409 4.26592 110.522 3.66937 110.747 3.10658C110.972 2.54379 111.287 2.0598 111.693 1.65459C112.098 1.24938 112.57 0.934224 113.111 0.709109C113.651 0.461484 114.225 0.337671 114.833 0.337671C116.116 0.337671 117.23 0.934224 118.176 2.12733C119.121 3.32044 119.785 5.17763 120.168 7.69891C120.213 8.03659 120.269 8.49807 120.337 9.08337C120.427 9.64615 120.517 10.2652 120.607 10.9406C120.72 11.6159 120.832 12.3138 120.945 13.0341C121.057 13.732 121.159 14.4073 121.249 15.0602C121.361 15.6905 121.451 16.2645 121.519 16.7823C121.609 17.2775 121.676 17.649 121.721 17.8966C121.879 18.9771 122.104 19.8551 122.397 20.5304C122.712 21.2058 123.038 21.5435 123.376 21.5435C123.624 21.5435 123.792 21.3971 123.882 21.1045C123.995 20.7893 124.051 20.2941 124.051 19.6187C124.051 18.8083 123.95 17.8966 123.747 16.8836C123.545 15.8481 123.32 14.7563 123.072 13.6082C122.847 12.4376 122.633 11.222 122.43 9.96131C122.25 8.70067 122.16 7.41752 122.16 6.11186C122.16 5.57158 122.183 4.98629 122.228 4.35597C122.273 3.70313 122.385 3.09532 122.566 2.53254C122.746 1.96975 123.005 1.49701 123.342 1.11432C123.702 0.731621 124.186 0.540274 124.794 0.540274H131.277V0.607809C130.827 1.08055 130.445 1.6771 130.129 2.39747C129.814 3.11783 129.567 3.90574 129.387 4.76117C129.206 5.59409 129.071 6.47204 128.981 7.39501C128.914 8.29547 128.88 9.17341 128.88 10.0288C128.88 10.9518 128.914 11.8185 128.981 12.6289C129.049 13.4168 129.116 14.1822 129.184 14.9251C129.274 15.668 129.353 16.4108 129.42 17.1537C129.488 17.8966 129.522 18.6732 129.522 19.4837C129.522 20.159 129.398 20.8006 129.15 21.4084C128.925 21.9937 128.599 22.5114 128.171 22.9617C127.766 23.3894 127.282 23.7383 126.719 24.0085C126.156 24.2561 125.548 24.3799 124.896 24.3799Z" fill="#F26D4A"/>
<path d="M141.863 24.7176C140.512 24.7176 139.24 24.4137 138.047 23.8059C136.854 23.198 135.807 22.3764 134.907 21.3409C134.006 20.2828 133.275 19.0447 132.712 17.6265C132.172 16.2082 131.868 14.6775 131.8 13.0341C131.733 11.3007 131.924 9.66867 132.374 8.13789C132.824 6.5846 133.466 5.23391 134.299 4.08583C135.132 2.93774 136.122 2.02603 137.27 1.35069C138.418 0.675343 139.657 0.337671 140.985 0.337671C141.728 0.337671 142.403 0.382694 143.011 0.47274C143.641 0.540274 144.26 0.607808 144.868 0.675343C145.476 0.742877 146.106 0.765389 146.759 0.742878C147.412 0.720366 148.143 0.607808 148.954 0.405205C149.291 0.337671 149.528 0.461485 149.663 0.776645C149.933 1.58706 150.057 2.34119 150.034 3.03904C150.012 3.71439 149.866 4.31094 149.595 4.8287C149.325 5.32396 148.931 5.71791 148.414 6.01055C147.896 6.3032 147.265 6.44953 146.523 6.44953C145.735 6.44953 144.969 6.35948 144.226 6.17939C143.506 5.9993 142.808 5.76293 142.133 5.47028C141.48 5.17763 140.838 4.85122 140.208 4.49103C139.6 4.10834 139.015 3.7369 138.452 3.37672C138.07 3.12909 137.687 3.10658 137.304 3.30918C136.921 3.48927 136.573 3.82695 136.257 4.3222C135.965 4.81745 135.717 5.43651 135.514 6.17939C135.312 6.92227 135.211 7.72143 135.211 8.57686C135.211 10.1302 135.413 11.5146 135.818 12.7302C136.246 13.9458 136.831 14.9814 137.574 15.8368C138.34 16.6922 139.24 17.3451 140.276 17.7953C141.311 18.2455 142.448 18.4706 143.686 18.4706C145.802 18.4706 147.569 17.7165 148.988 16.2082C149.123 16.0507 149.291 16.0281 149.494 16.1407C149.697 16.2533 149.798 16.5684 149.798 17.0862C149.798 18.1667 149.595 19.1685 149.19 20.0915C148.785 21.0144 148.222 21.8248 147.502 22.5227C146.781 23.198 145.937 23.7383 144.969 24.1435C144.001 24.5262 142.966 24.7176 141.863 24.7176Z" fill="#F26D4A"/>
<path d="M157.676 24.1773C157.293 23.8621 156.989 23.4907 156.764 23.063C156.539 22.6127 156.426 22.14 156.426 21.6448C156.426 20.9919 156.595 20.4629 156.933 20.0577C157.27 19.63 157.642 19.2811 158.047 19.0109C158.452 18.7408 158.824 18.5269 159.161 18.3693C159.499 18.1892 159.668 18.0092 159.668 17.8291C159.668 17.5139 159.33 17.3901 158.655 17.4576C158.002 17.5252 157.338 17.4801 156.662 17.3226C156.01 17.165 155.413 16.9174 154.873 16.5797C154.333 16.2195 153.894 15.7918 153.556 15.2965C153.218 14.7788 153.049 14.1935 153.049 13.5406C153.049 12.5276 153.466 11.5146 154.299 10.5016C155.154 9.48857 156.325 8.61063 157.811 7.86775C158.261 7.64264 158.418 7.40627 158.283 7.15864C158.171 6.8885 157.833 6.75343 157.27 6.75343C156.955 6.75343 156.572 6.79846 156.122 6.8885C155.695 6.97855 155.244 7.09111 154.772 7.22617C154.299 7.36124 153.815 7.51882 153.32 7.69891C152.824 7.85649 152.352 8.02533 151.901 8.20542C151.654 8.31798 151.451 8.31798 151.294 8.20542C151.158 8.09286 151.091 7.91277 151.091 7.66515V1.24939C151.091 1.0918 151.203 0.956735 151.429 0.844178C151.676 0.70911 151.969 0.607809 152.307 0.540274C152.644 0.47274 153.004 0.427717 153.387 0.405205C153.792 0.360182 154.152 0.337671 154.468 0.337671C155.21 0.337671 155.92 0.450228 156.595 0.675343C157.293 0.900457 157.889 1.22687 158.385 1.65459C158.902 2.0598 159.308 2.55505 159.6 3.14035C159.915 3.72564 160.073 4.37848 160.073 5.09884C160.073 6.02181 159.983 6.86599 159.803 7.63138C159.645 8.37426 159.465 9.07211 159.263 9.72494C159.06 10.3553 158.869 10.9518 158.689 11.5146C158.531 12.0774 158.452 12.6289 158.452 13.1692C158.452 14.0471 158.722 14.79 159.263 15.3978C159.825 16.0056 160.501 16.3095 161.289 16.3095C161.739 16.3095 162.155 16.1857 162.538 15.9381C162.921 15.668 163.258 15.3078 163.551 14.8576C163.844 14.4073 164.069 13.8783 164.226 13.2705C164.384 12.6402 164.463 11.9648 164.463 11.2445C164.463 8.92579 164.26 6.86599 163.855 5.06507C163.45 3.24165 162.909 1.72213 162.234 0.506507L167.569 0.540274C168.537 0.540274 169.258 0.967991 169.73 1.82343C170.226 2.65635 170.473 3.88322 170.473 5.50405C170.473 6.56209 170.304 7.53008 169.967 8.40803C169.629 9.26346 169.201 10.0739 168.684 10.8393C168.166 11.6046 167.603 12.3475 166.995 13.0679C166.41 13.7883 165.858 14.5311 165.341 15.2965C164.823 16.0619 164.395 16.8723 164.057 17.7278C163.72 18.5607 163.551 19.4949 163.551 20.5304C163.551 21.3859 163.596 22.1062 163.686 22.6915C163.799 23.2768 164.057 23.7608 164.463 24.1435V24.1773H157.676Z" fill="#F26D4A"/>
</svg>
