<svg width="710" height="546" viewBox="0 0 710 546" fill="none" xmlns="http://www.w3.org/2000/svg">
<g opacity="0.02">
<path d="M341.118 209.222C318.11 201.47 296.651 217.787 283.481 235.454C292.716 229.485 301.696 225.27 312.939 228.551C321.782 231.133 328.832 238.624 332.827 246.8C345.41 272.557 342.222 304.468 334.065 331.125C326.784 352.731 314.182 377.211 293.111 388.023C274.028 397.816 258.787 388.425 250.037 370.75L249.558 370.051C249.518 370.202 249.482 370.353 249.446 370.505C250.432 381.596 256.29 397.873 262.327 406.247C270.291 417.294 277.229 421.241 289.53 423.471C295.275 420.447 299.104 418.464 305.613 417.174C307.49 416.8 314.579 415.626 315.908 415.035C332.864 407.468 349.002 381.279 356.548 364.947C373.522 328.208 381.013 279.101 367.231 240.399C362.36 226.715 354.367 215.442 341.118 209.222Z" fill="white"/>
<path d="M223.079 366.302C226.953 361.756 236.984 348.888 238.347 343.615C238.926 341.361 239.818 326.874 240.252 323.072C241.503 312.725 243.569 302.493 246.426 292.472C248.942 283.462 252.12 274.655 255.755 266.038C259.053 258.228 264.24 253.156 263.868 244.278C262.784 218.342 253.434 175.412 220.112 176.604C208.981 177.002 195.681 185.658 188.378 193.605C187.132 198.578 185.16 196.188 187.037 199.499C193.857 196.686 199.579 195.377 206.994 197.447C215.147 199.722 221.935 207.738 225.563 215.203C237.819 240.433 234.07 275.118 225.486 301.089C218.951 320.855 204.966 345.904 185.793 355.442C178.869 358.887 171.016 360.077 163.651 357.259C152.822 353.119 148.226 343.678 143.678 333.924C145.123 347.324 148.346 360.325 155.233 372C167.326 378.332 165.219 379.529 173.071 387.862L173.383 388.187C179.81 389.85 182.653 389.796 189.151 388.765C190.178 380.006 193.765 372.325 201.718 367.756C209.143 363.488 215.33 364.313 223.079 366.302Z" fill="white"/>
<path d="M305.129 240.59C304.819 240.662 303.806 241.04 303.697 241.251C298.754 250.987 297.437 259.099 290.29 267.643C284.157 274.974 266.64 271.138 264.474 273.067C266.345 276.71 275.326 279.563 279.423 283.632C289.859 293.993 282.578 309.976 282.846 321.84C283.263 321.742 283.685 321.64 284.105 321.543C289.334 311.891 290.84 303.346 298.045 294.774C304.071 287.606 321.617 291.434 323.87 288.809C319.026 284.782 311.778 282.166 307.111 277.275C298.62 268.376 305.142 251.583 305.129 240.59Z" fill="white"/>
<path d="M198.985 209.533C196.882 210.154 195.536 214.543 194.728 216.624C191.688 224.465 189.589 229.74 184.447 236.206C177.971 244.347 162.437 238.974 158.774 241.952C159.219 243.451 168.622 248.324 171.031 249.91C186.729 260.268 175.047 278.369 177.191 290.672C180.442 289.068 185.759 268.807 191.317 263.947C199.284 256.981 203.394 258.736 213.484 258.564C214.958 258.538 216.831 258.177 217.76 257.167C214.036 254.109 204.667 250.424 201.097 246.347C192.768 236.823 198.665 221.142 198.985 209.533Z" fill="white"/>
<path d="M188.378 193.605C184.224 197.42 181.633 200.696 178.164 205.115C180.651 203.493 184.517 200.8 187.037 199.499C185.16 196.188 187.132 198.578 188.378 193.605Z" fill="white"/>
<path fill-rule="evenodd" clip-rule="evenodd" d="M628.773 206.149C624.963 207.289 622.851 208.7 617.913 209.818C602.256 213.36 583.447 213.662 567.42 213.015C486.834 209.762 402.104 193.346 324.969 170.526C290.977 160.834 257.65 148.949 225.195 134.946C203.546 125.429 177.196 113.892 160.931 96.5007C155.823 105.99 153.262 118.78 150.609 129.291C147.167 143.081 143.81 156.894 140.54 170.727C127.47 224.685 115.288 278.853 104.002 333.215C96.7282 366.975 89.6796 400.788 82.8507 434.639L76.9536 463.801C74.6789 474.898 70.0218 493.491 75.4369 503.834C93.8603 539.027 143.567 565.13 177.929 580.442C201.379 590.675 225.5 599.288 250.127 606.228C304.869 621.6 429.534 642.789 481.243 613.385C484.55 611.503 487.807 609.32 490.427 606.539C500.201 596.161 504.521 578.549 508.242 565.056C497.745 566.297 489.38 566.361 479.352 566.922C367.115 573.212 391.997 447.498 413.397 379.154C419.004 361.248 424.903 343.95 432.536 326.67C439.731 310.117 448.408 294.255 458.463 279.271C474.717 255.281 496.846 230.272 526.698 224.602C548.196 220.519 570.396 227.845 588.133 239.929C591.464 238.525 594.139 237.454 597.619 236.484C607.191 233.813 616.956 233.297 624.721 226.594C626.307 221.01 627.522 212.282 628.773 206.149ZM184.652 481.568C188.847 484.495 192.318 487.868 196.314 490.688C208.141 499.033 221.567 501.722 235.868 500.988C238.872 500.831 243.358 500.595 246.417 500.962C247.039 501.036 247.811 502.353 248.113 502.95C247.917 506.291 244.623 507.207 241.76 507.965C224.036 511.821 205.511 508.309 190.429 498.242C186.751 495.822 177.61 487.079 180.231 482.264C181.722 481.277 182.925 481.141 184.652 481.568ZM135.142 427.596C137.633 415.257 152.078 407.233 163.667 410.383C164.919 411.735 165.159 411.842 165.561 413.565C164.821 417.404 160.063 417.841 156.661 418.773C183.236 463.023 235.805 478.466 284.811 470.367C291.339 469.288 299.682 466.837 305.673 464.068C304.18 459.54 303.045 448.537 308.963 446.866C310.646 447.017 310.59 447.1 311.858 448.118C314.105 452.764 312.989 461.146 316.857 469.221C320.875 477.605 331.572 482.638 331.695 488.432C330.164 491.549 327.169 491.315 324.326 490.162C317.114 485.785 312.742 481.911 308.721 474.234C277.129 487.023 234.456 485.224 203.233 472.023C180.138 462.478 160.758 445.715 147.978 424.243C145.34 427.45 140.915 434.92 136.324 432.722C135.157 431.243 134.773 429.424 135.142 427.596ZM150.025 238.24C161.853 208.165 196.085 156.625 234.207 169.825C259.463 179.128 270.984 211.515 271.833 236.36C284.763 219.553 301.836 201.236 324.142 198.433C335.026 197.008 346.029 200.048 354.639 206.859C372.153 220.557 380.076 245.856 382.341 267.428C387.129 313.019 373.5 364.087 345.41 400.495C340.489 406.873 334.719 412.246 328.743 417.461C335.464 419.431 344.02 422.577 347.579 429.12C348.541 430.884 348.772 431.88 347.164 433.077C341.906 433.862 338.596 430.148 333.454 428.309C318.684 423.03 303.31 425.074 290.573 434.284C287.639 436.405 284.638 440.102 280.818 438.992C278.41 436.319 280.245 433.956 281.671 431.216C266.601 426.355 257.203 417.154 250.075 403.118C248.358 399.708 246.863 396.195 245.603 392.592C242.189 382.064 239.654 370.775 239.441 359.697C236.488 363.639 233.428 367.504 230.271 371.283C233.208 374.324 240.02 382.67 237.623 386.963C236.088 387.962 236.901 387.752 235.111 387.667C233.214 386.449 231.004 383.581 229.548 381.755C215.929 364.66 194.048 377.041 199.285 397.56C201.406 405.866 208.676 412.2 216.884 414.509C218.657 415.016 222.955 416.559 223.554 418.588C224.373 421.964 221.719 423.343 218.985 423.345C211.675 423.343 203.604 418.813 198.52 413.851C193.978 409.493 190.858 403.863 189.57 397.697C184.726 398.188 181.657 398.293 176.801 398.277C177.426 401.123 178.081 404.185 175.22 406.096C171.93 405.875 169.274 399.037 167.578 396.391C160.054 384.662 147.919 375.919 133.398 378.764C129.337 379.558 124.778 383.581 121.168 380.249C120.655 375.386 128.278 371.439 132.227 370.303C136.288 369.138 139.812 369.049 143.983 369.236C126.751 327.751 133.967 279.077 150.025 238.24Z" fill="white"/>
<path d="M604.678 129.573C573.741 139.27 510.971 131.751 479.652 127.013C409.781 116.444 338.605 98.0117 273.329 70.8161C255.518 63.3957 230.313 51.2313 216.18 38.1254C202.538 55.1392 182.018 66.6777 168.471 83.6175C161.95 91.774 187.519 105.609 192.927 108.836C213.054 120.239 237.516 130.27 259.08 138.541C345.794 171.237 436.478 192.234 528.739 200.978C554.362 203.348 582.386 205.714 607.969 202.133C613.697 201.331 623.526 199.979 626.98 194.731C629.869 190.339 612.816 153.474 610.418 147.434C608.225 141.912 605.929 136.026 604.796 130.196L604.678 129.573Z" fill="white"/>
<path d="M342.619 -96.2076C328.673 -98.4574 312.921 -92.5212 309.642 -77.3764L320.303 -79.6306C332.136 -82.1304 344.085 -83.3593 356.103 -84.4929C352.293 -91.4972 350.321 -93.5931 342.619 -96.2076Z" fill="white"/>
<path d="M368.126 -65.3293C372.511 -70.8743 373.302 -78.7361 370.541 -85.1681C367.226 -92.8936 361.659 -96.201 354.304 -99.1609C364.1 -88.8785 366.247 -82.6362 364.071 -68.5554C362.874 -65.1402 361.571 -61.5493 359.979 -58.2994C363.425 -60.5916 365.624 -61.9267 368.126 -65.3293Z" fill="white"/>
<path fill-rule="evenodd" clip-rule="evenodd" d="M364.067 -119.525C349.176 -124.372 322.402 -120.887 308.166 -114.055C304.216 -112.16 296.232 -102.499 293.062 -101.832C291.145 -102.234 291.866 -101.765 290.66 -102.987C290.022 -105.661 291.552 -107.623 292.909 -109.975C287.358 -106.069 283.992 -103.476 280.329 -97.6589C274.144 -87.6749 272.912 -73.2193 275.894 -62.0057C281.391 -41.3654 289.056 -21.2113 295.728 -0.923124C297.425 4.23 299.147 9.59021 301.556 14.4361C302.586 16.4998 304.952 17.8767 306.854 19.0377C302.483 7.17898 298.043 -7.78496 294.283 -19.9649C290.417 -32.4882 283.505 -52.1122 281.439 -64.5711C280.514 -70.3191 280.404 -76.1694 281.113 -81.9483C281.558 -85.4305 283.768 -98.9594 289.162 -96.3488C290.998 -95.6074 289.531 -90.5478 289.089 -88.9132C283.845 -69.595 291.871 -50.179 297.807 -31.4135C301.574 -19.3036 305.411 -7.21691 309.321 4.84737C310.759 10.3424 313.972 18.6718 316.649 23.4695C322.399 25.7746 328.224 27.8956 334.112 29.8288C316.161 12.3197 316.887 -22.9983 340.779 -34.8403C349.452 -39.148 359.51 -39.7245 368.615 -36.4361C372.218 -35.1225 380.018 -31.3975 377.934 -26.6715C373.986 -24.6892 369.373 -28.8579 365.485 -30.2221C363.336 -30.9757 362.002 -31.2479 359.803 -31.7135C361.937 -30.2039 365.349 -28.4893 367.211 -26.8129C379.996 -15.2947 384.62 6.09702 376.386 21.4124C371.347 30.7869 364.961 34.3155 355.541 37.2233C364.024 39.7797 372.602 42.0173 381.255 43.9323C402.674 30.5675 406.224 3.88689 400.875 -18.4034C399.442 -24.3801 398.609 -32.0257 397.655 -38.2327L393.166 -68.7312C389.863 -91.5287 387.885 -109.363 364.067 -119.525ZM385.444 -21.8348C390.987 -16.5909 393.435 -6.52009 393.679 0.912186C393.942 9.12702 390.622 25.6058 381.602 28.2143C381.03 27.5945 379.695 26.359 380.061 25.3953C383.61 16.0989 387.26 11.4364 387.22 0.98393C387.191 -5.5578 379.838 -17.5655 382.679 -21.4723C384.057 -22.0028 383.96 -21.9606 385.444 -21.8348ZM337.408 -105.117C344.654 -106.097 351.984 -106.976 359.086 -104.665C367.417 -101.331 372.966 -97.1157 376.626 -88.6264C379.612 -81.6581 379.677 -73.7811 376.8 -66.7655C373.884 -59.4471 367.614 -53.127 360.316 -50.4543C348.698 -46.1987 331.59 -42.2956 319.673 -46.9379C304.675 -52.4535 297.797 -69.7683 303.327 -84.4389C308.502 -98.1709 324.122 -103.317 337.408 -105.117Z" fill="white"/>
<path d="M473.99 -95.2568C449.531 -102.257 417.662 -106.53 392.201 -105.772C396.26 -97.8512 397.422 -93.8946 399.351 -85.3773C432.72 -85.625 460.073 -81.412 491.527 -69.5943C550.791 -47.7905 598.978 -3.35603 625.503 53.9498C629.95 63.4872 633.319 73.4648 636.243 83.5676C638.055 89.8274 639.193 96.4867 641.518 102.543C646.744 107.16 660.737 101.638 660.416 98.9627C658.931 86.5749 649.984 62.8356 645.405 52.188C642.505 45.4334 639.296 38.8158 635.786 32.3571C601.144 -31.2071 542.945 -74.949 473.99 -95.2568Z" fill="white"/>
<path d="M443.405 29.6466C433.692 26.6338 418.356 23.5522 408.199 21.2079C407.483 23.7887 407.063 24.8871 406.037 27.2926C408.324 27.8067 410.6 28.3919 412.854 29.0462C423.233 32.1134 450.61 40.6132 455.466 50.3393C456.313 52.0368 456.536 54.0311 455.834 55.819C454.872 58.2729 452.48 59.7482 450.114 60.63C427.338 69.1132 330.872 39.0536 307.278 27.9265C292.739 21.0708 293.043 16.3898 287.972 2.15636C273.805 1.18873 260.816 2.31098 246.867 4.68731C266.15 16.3381 297.369 28.859 319.318 36.2403C329.515 40.2099 343.758 44.4139 354.363 47.6823C399.782 61.8473 446.264 72.3373 493.364 79.0524C524.933 83.8053 558.537 87.6178 590.366 85.7768C558.727 61.7114 483.045 40.2575 443.405 29.6466Z" fill="white"/>
<path d="M651.952 239.307C650.409 239.965 647.837 244.108 646.065 245.772C634.202 256.914 616.828 257.242 603.16 263.897C581.857 274.271 560.043 295.302 544.195 312.868C538.918 318.729 533.788 324.724 528.811 330.847C524.421 336.332 519.599 343.402 514.419 347.995C510.471 351.496 504.023 349.133 499.325 350.069L499.028 350.629C502.105 355.518 513.112 357.776 517.833 353.567C523.449 348.56 527.539 342.2 532.576 336.466C552.488 313.8 574.101 289.616 601.709 276.365C615.438 269.975 628.77 270.114 642.687 275.602C654.894 280.558 667.801 290.938 675.999 301.117C696.516 326.592 702.814 356.766 692.726 387.794C690.927 393.288 688.745 398.646 686.194 403.835C685.159 405.922 681.405 411.914 681.218 413.364C680.513 418.825 680.463 425.1 679.916 430.804C682.196 427.129 685.63 422.707 688.258 419.228C710.833 389.332 714.812 350.615 701.884 315.831C694.444 295.814 689.517 283.606 697.974 262.602L697.393 262.426C688.265 259.718 660.015 244.899 651.952 239.307Z" fill="white"/>
<path d="M623.628 280.624C610.797 280.659 597.002 287.662 586.924 295.484C574.577 305.068 559.15 318.437 549.382 330.729C546.512 334.338 541.016 347.621 539.141 352.096C524.396 387.279 511.673 427.864 505.878 465.609C502.631 486.766 499.182 521.043 512.715 538.538C517.963 545.326 523.919 548.573 532.291 549.755C515.737 535.33 514.602 517.447 515.745 496.673C516.839 484.406 519.506 471.335 522.992 459.492C534.05 422.298 546.695 385.412 562.9 350.086C570.896 332.653 581.528 309.305 598.587 298.991C603.415 296.072 611.1 294.809 616.344 296.902C636.918 305.117 653.835 329.038 664.052 347.87C658.101 326.383 650.459 309.481 635.898 292.252C632.402 288.115 628.328 283.382 623.628 280.624Z" fill="white"/>
<path d="M527.727 356.952C525.631 358.335 523.788 360.504 521.703 361.657C509.414 368.435 496.887 363.897 489.989 352.654C478.176 384.801 467.892 417.715 462.407 451.935C458.499 476.32 451.987 519.719 466.34 541.55C471.352 549.174 479.039 551.222 487.399 552.533C482.753 550.24 478.622 547.027 475.261 543.086C463.51 529.35 462.326 506.503 463.649 489.238C463.844 480.762 465.419 467.049 468.889 459.532C470.174 456.746 491.713 462.96 491.559 468.245C490.784 494.834 483.652 528.874 507.474 547.693C504.923 542.76 501.57 539.1 499.209 533.037C494.721 521.509 493.805 506.951 494.304 494.739C496.207 448.15 510.281 399.907 527.727 356.952Z" fill="white"/>
<path d="M708.506 132.231C705.644 127.222 697.686 122.629 692.543 120.339C688.818 118.681 675.39 110.792 672.555 111.006C670.108 113.122 670.105 115.582 670.007 118.73C669.454 136.38 668.718 153.946 667.25 171.55C666.719 177.919 666.174 184.526 666.408 190.914C667.317 203.102 671.521 214.459 671.626 226.786C676.331 229.287 704.165 243.731 707.596 244.263C712.757 240.603 704.252 211.836 704.814 204.67C704.443 200.651 704.942 194.551 705.184 190.402C706.047 184.007 706.695 173.986 707.121 167.289C707.777 156.968 709.054 142.329 708.506 132.231Z" fill="white"/>
<path d="M554.637 -67.92C598.298 -41.253 639.514 11.1675 657.36 58.9593C659.576 64.9466 661.702 70.9666 663.738 77.0171C670.169 96.4777 666.382 99.4751 687.08 107.348C691.645 109.084 698.938 114.714 703.762 115.782C706.593 115.134 706.369 112.315 705.883 109.881C689.594 28.2266 628.873 -34.1733 555.57 -69.4285L554.637 -67.92Z" fill="white"/>
<path d="M603.859 111.478C598.729 112.316 593.988 112.966 588.791 113.301C557.838 115.295 525.889 112.425 495.217 108.292C420.877 98.2738 346.641 79.395 277.393 50.3442C263.282 44.4241 236.536 32.1476 224.992 22.1607C223.864 24.7074 221.921 27.3698 221.569 29.9573C221.471 30.6837 222.28 31.3022 222.891 32.0234C246.895 52.7196 293.955 69.8367 323.791 79.8416C387.534 101.382 453.478 115.743 520.403 122.659C543.586 124.878 580.64 126.753 603.275 120.132C603.269 117.244 603.595 114.357 603.859 111.478Z" fill="white"/>
<path d="M614.804 90.2408C592.398 97.8778 558.417 95.6893 534.744 93.6049C494.192 89.7685 453.966 83.0412 414.371 73.4737C356.829 60.0946 297.507 41.9719 245.064 14.2152C236.853 9.86909 229.578 4.85302 223.574 -2.30458C222.921 1.05288 221.42 4.10956 222.607 7.14958C239.665 33.0859 341.747 65.9447 374.205 74.4692C441.054 92.0254 514.15 107.284 583.524 104.832C591.765 104.54 602.804 103.282 610.128 99.5333C613.357 97.9249 613.955 93.4746 614.804 90.2408Z" fill="white"/>
<path d="M670.741 404.726C667.035 368.925 651.617 336.815 624.293 312.797C611.873 301.318 600.663 305.263 591.689 318.303C571.058 348.282 557.834 385.26 545.911 419.505C535.164 450.372 523.08 482.234 526.051 515.297C528.818 546.062 561.182 549.928 583.991 538.302C571.853 539.653 556.655 541.176 546.392 533.091C539.406 527.588 536.335 518.92 535.471 510.331C534.644 502.098 535.638 493.583 537.146 485.486C544.096 448.175 577.597 354.136 600.742 325.816C603.308 322.676 606.699 319.055 610.952 318.62C615.271 318.178 619.094 320.928 622.186 323.623C646.04 344.415 661.461 375.752 667.435 406.513C668.514 412.803 669.106 419.166 669.206 425.544C669.233 429.665 668.885 434.612 669.415 438.596C671.752 427.889 671.221 415.57 670.741 404.726Z" fill="white"/>
<path d="M109.986 556.834L109.778 556.995C109.865 557.267 109.946 557.542 110.032 557.814C123.444 577.987 160.812 598.797 180.254 607.28C221.64 625.329 263.477 637.747 307.038 644.863C341.067 650.426 395.047 655.633 427.222 643.371C431.396 641.689 433.939 640.371 437.868 638.265C412.524 642.388 376.169 639.607 350.598 636.983C268.846 628.585 178.271 604.223 109.986 556.834Z" fill="white"/>
<path d="M646.238 234.572C644.998 232.184 642.413 225.866 640.916 224.75C637.815 224.905 630.042 234.579 623.878 237.764C613.845 242.948 601.238 243.046 592.627 247.218C562.838 262.002 539.723 288.062 516.822 311.597C511.832 316.724 498.304 331.243 498.173 338.22C498.074 343.463 508.179 345.229 512.512 339.872C528.092 320.601 543.612 301.199 562.224 284.677C575.324 273.045 589.259 261.161 605.981 255.107C612.831 252.54 622.812 250.511 628.861 247.769C636.01 245.521 642.154 240.855 646.238 234.572Z" fill="white"/>
<path d="M60.3578 211.084C55.1981 211.637 50.7065 211.781 45.71 209.944C44.2566 209.614 40.5472 207.072 39.5485 206.598C38.438 206.074 35.0524 216.784 34.677 217.829C26.9972 238.994 21.4097 260.763 17.1656 282.865C16.7381 285.095 16.3305 287.609 15.7751 289.782C19.583 291.406 28.0945 294.385 30.6195 297.218C31.7173 300.77 27.5005 334.517 27.2032 341.702C26.727 353.719 27.9494 365.744 30.8325 377.417L32.0932 377.363C28.4419 322.854 40.6133 261.894 60.3578 211.084Z" fill="white"/>
<path d="M266.87 -83.4269C260.567 -81.4831 253.01 -77.6998 247.041 -74.8102C220.851 -62.1641 197.807 -44.7928 176.634 -24.9935C170.029 -18.8183 168.959 -15.8238 175.858 -10.0124C177.234 -9.15973 179.671 -7.6146 181.102 -7C181.567 -6.79864 182.052 -6.66509 182.553 -6.60037C188.272 -5.90358 196.813 -18.0571 201.278 -22.1029C219.881 -38.9681 243.242 -55.5534 266.999 -64.1743C265.963 -71.3659 266.095 -76.2721 266.87 -83.4269Z" fill="white"/>
<path d="M163.19 -7.25292C159.384 -7.18338 154.039 5.81811 152.142 9.15601C143.207 24.8847 137.854 44.0604 126.353 58.0185C119.85 65.9054 107.792 70.1268 101.796 78.6722C99.5885 81.818 100.641 85.0013 101.364 88.4349C104.407 88.2884 107.452 88.1149 110.494 87.9138C112.036 87.8125 119.08 87.3715 120.267 86.9726C140.588 80.1219 150.489 50.1496 159.966 32.6759C165.994 21.5592 169.419 14.6606 176.002 4.697C171.703 0.744261 167.429 -3.23987 163.19 -7.25292Z" fill="white"/>
<path d="M549.518 245.788C530.915 254.618 517.82 271.997 506.288 288.477C489.64 312.267 477.83 338.525 468.118 365.824C463.327 378.958 459.239 392.337 455.871 405.904C448.052 437.999 436.574 505.468 450.99 535.489C453.39 540.482 456.595 544.574 460.567 548.399C459.508 546.027 458.09 544.109 456.892 541.828C454.162 536.733 452.186 531.273 451.028 525.609C441.967 482.446 461.693 408.892 475.182 367.418C487.362 329.969 515.812 271.237 549.716 248.96L549.518 245.788Z" fill="white"/>
<path d="M127.427 133.399C120.847 135.878 115.303 138.654 110.348 143.882C93.1374 156.853 75.2908 195.26 67.957 215.311C51.3914 260.61 22.2801 367.735 53.9789 409.499L54.3244 409.951C32.6735 359.017 54.6227 277.339 71.8227 227.217C80.6311 201.555 96.452 166.046 114.088 145.351C118.694 140.436 122.226 137.528 127.427 133.399Z" fill="white"/>
<path d="M661.624 110.563C659.206 110.634 655.711 111.737 653.314 112.398C645.435 114.542 642.811 116.902 643.299 125.341C644.774 150.82 645.517 176.38 646.615 201.85C646.843 207.147 649.706 219.597 651.421 224.492C653.14 227.748 656.023 231.766 660.822 229.255C662.321 228.471 663.589 225.218 663.498 223.497C663.152 213.168 659.256 202.456 658.441 192.219C657.736 183.38 659.298 172.662 659.883 163.647C661.042 145.797 661.982 128.458 661.624 110.563Z" fill="white"/>
<path d="M119.078 96.5176C112.778 96.5539 106.277 97.0764 100.003 97.5667C94.8053 113.555 87.5452 112.396 76.2673 122.243C66.0314 131.184 57.0666 146.208 51.8128 158.688C49.3228 164.591 41.1501 184.574 42.7281 190.152C44.3974 191.424 45.7694 192.253 47.9121 192.375C55.4626 192.925 57.6545 187.393 59.9221 181.367C69.4775 156.007 79.3724 126.798 104.122 112.304C112.243 107.546 118.18 107.34 119.078 96.5176Z" fill="white"/>
<path d="M448.796 3.04931C436.366 -0.075745 423.9 -3.05629 411.405 -5.89035L411.5 0.834445C440.429 7.05831 469.003 14.8093 497.11 24.0556C526.247 33.4106 566.258 47.5646 592.256 63.9641C596.716 66.5303 600.599 69.4176 604.577 72.6653C607.142 74.7593 610.912 81.1221 613.069 81.5006C631.868 71.7374 560.871 41.1579 555.36 38.8083C520.816 24.1513 485.188 12.1956 448.796 3.04931Z" fill="white"/>
<path d="M442.36 12.9509C432.129 10.1778 421.613 7.89905 411.267 5.5437C411.125 8.36558 410.827 10.1832 410.375 12.962C450.456 21.7153 489.95 32.9595 528.628 46.6299C548.011 53.6328 567.574 61.2906 585.415 71.6891C591.969 75.897 596.273 78.9786 601.789 84.3907C603.596 84.2397 605.582 83.8029 607.381 83.4611C600.969 73.8215 585.542 65.4928 575.126 60.178C533.544 38.9609 487.37 24.8845 442.36 12.9509Z" fill="white"/>
<path d="M147.039 99.1626C140.401 98.4066 133.995 96.9074 127.493 96.2727C126.677 118.454 111.163 112.859 97.2017 126.743C83.9187 139.498 76.7174 157.617 70.1477 174.362C66.0636 184.759 63.1194 201.234 48.8422 199.59C47.4405 199.427 45.7209 199.121 44.4445 199.646C48.8084 203.093 53.4764 203.421 58.8572 202.418C69.6461 200.411 70.9588 188.762 73.784 179.801C81.4108 155.617 95.3887 127.449 122.003 120.47C128.208 118.842 134.378 119.624 140.592 120.525C142.32 113.284 144.475 106.151 147.039 99.1626Z" fill="white"/>
<path d="M32.8981 189.092C33.1079 187.26 33.4011 185.191 33.5385 183.374L30.5431 188.786C30.1827 189.381 29.8385 189.986 29.5063 190.597C10.3184 225.034 -0.193478 269.383 0.00271706 308.766C0.0446433 317.183 0.60039 328.452 2.85342 336.355C3.2912 308.547 10.2723 271.678 17.5177 244.874C20.2952 234.628 23.4463 224.484 26.9614 214.462C28.9485 208.907 31.8203 203.09 33.2825 197.415C33.4554 196.743 32.9354 190.364 32.8981 189.092Z" fill="white"/>
<path d="M367.452 -14.1992C358.02 -16.2265 344.714 -17.6817 334.894 -18.9971C330.573 -13.625 329.986 -8.92508 329.526 -2.42535C331.693 -2.01764 334.043 -1.70743 336.231 -1.3749C348.439 0.572958 360.609 2.75608 372.733 5.17288C372.39 -2.34323 371.266 -7.59722 367.452 -14.1992Z" fill="white"/>
<path d="M651.203 290.704C650.048 290.341 650.484 290.381 649.262 290.486C649.149 292.076 652.359 296.728 653.38 298.313C663.781 314.45 669.214 331.508 674.32 349.857L674.555 350.58L674.929 350.678C677.903 339.333 677.921 322.86 672.289 312.217C667.659 303.468 659.254 296.234 651.203 290.704Z" fill="white"/>
<path d="M475.205 467.254C474.643 467.048 473.922 466.881 473.33 466.723L472.833 467.282C470.524 486.161 468.245 509.834 474.742 528.068C478.013 537.25 483.655 542.165 492.288 546.115C493.096 546.356 493.392 546.363 494.231 546.479C493.91 545.667 490.345 542.327 489.416 541.421C473.58 525.95 475.792 501.868 477.184 481.666C477.459 477.671 478.59 473.793 478.723 469.572C477.95 468.228 476.684 467.919 475.205 467.254Z" fill="white"/>
<path d="M18.5745 300.128C16.0116 299.695 14.6075 299.504 14.0601 302.666C11.53 317.314 9.30218 336.884 12.0817 351.486C13.2112 357.395 15.2939 363.082 18.2505 368.322C19.116 369.532 18.5596 369.218 19.7458 369.672C19.5886 367.459 18.2333 362.562 17.8455 359.603C16.8214 351.859 16.5896 345.17 16.815 337.419C17.025 330.506 17.5665 323.603 18.4322 316.74C18.9669 312.395 20.126 306.9 20.577 302.426C20.6643 301.555 19.3946 300.815 18.5745 300.128Z" fill="white"/>
<path d="M686.829 340.838L685.126 340.111C683.082 354.336 682.574 361.064 676.142 374.116C677.762 382.24 678.844 387.95 679.852 396.158C689.903 375.691 690.352 362.407 686.829 340.838Z" fill="white"/>
<path d="M279.954 -22.3945C279.221 -22.4669 278.49 -22.5257 277.756 -22.5724C265.786 -23.322 236.364 -22.5972 227.388 -14.6129C227.754 -12.1787 227.844 -11.577 228.752 -9.31026C228.815 -9.28406 230.008 -8.93711 230.087 -8.97933C245.399 -17.5413 263.759 -17.7131 281.213 -17.6513L279.954 -22.3945Z" fill="white"/>
<path d="M283.162 -12.7294C274.498 -13.8314 238.054 -11.3279 233.718 -4.75621C234.207 -3.46052 235.514 -2.82061 236.722 -1.97682C238.649 -0.959002 245.27 -3.86411 248.214 -4.3821C260.863 -6.60099 272.308 -6.72232 285.033 -6.49802L283.162 -12.7294Z" fill="white"/>
<path d="M668.641 233.403C667.115 234.696 665.751 235.682 664.144 236.852C671.201 240.719 692.543 252.171 699.293 254.17C701.262 253.209 702.927 251.971 704.734 250.731C693.683 246.987 679.839 238.138 668.641 233.403Z" fill="white"/>
<path d="M371.428 11.1078C361.668 8.8075 340.053 5.07718 330.397 4.22755L331.496 10.1494L331.822 10.9365C332.198 11.1077 342.194 11.0783 343.706 11.2186C352.371 12.0244 360.607 13.7728 368.945 16.152C370.118 14.9617 370.963 12.687 371.428 11.1078Z" fill="white"/>
<path d="M365.245 22.9956C353.619 19.8084 347.039 18.6524 334.862 18.6825C335.792 19.871 337.15 21.3202 338.173 22.4836C346.529 29.8647 357.033 31.789 365.245 22.9956Z" fill="white"/>
<path d="M562.712 253.001C553.133 255.342 537.715 268.763 532.669 276.681C532.404 278.164 531.955 279.435 532.539 280.743C534.321 280.683 534.42 279.406 536.39 278.735C536.45 278.709 560.678 257.414 561.783 256.293C562.1 255.197 562.41 254.1 562.712 253.001Z" fill="white"/>
<path d="M213.938 13.3925C209.368 16.6673 211.564 16.5832 204.553 19.7584C203.647 30.172 191.784 42.0108 191.655 46.0113C198.841 40.513 217.031 23.6931 213.938 13.3925Z" fill="white"/>
<path d="M536.39 278.735C534.42 279.406 534.321 280.683 532.539 280.743C531.955 279.435 532.404 278.164 532.669 276.681C526.795 282.997 521.711 290.972 517.162 298.282C521.08 294.636 524.921 290.426 528.725 286.606C530.505 284.819 535 280.546 536.39 278.735Z" fill="white"/>
<path d="M567.044 242.757C559.435 242.158 556.708 243.251 549.518 245.788L549.716 248.96C556.289 245.73 560.099 244.62 567.044 242.757Z" fill="white"/>
<path d="M555.57 -69.4285C552.852 -70.5704 550.071 -71.7973 547.292 -72.7687L554.637 -67.92L555.57 -69.4285Z" fill="white"/>
<path d="M568.597 251.513C566.516 251.978 564.754 252.351 562.712 253.001C562.41 254.1 562.1 255.197 561.783 256.293L568.597 251.513Z" fill="white"/>
<path d="M32.8593 383.378C32.6827 381.169 32.6211 379.536 32.0932 377.363L30.8325 377.417C31.4417 379.536 32.1029 381.32 32.8593 383.378Z" fill="white"/>
<path d="M686.829 340.838C686.546 339.571 686.336 337.731 685.463 336.89C685.065 338.242 685.129 338.733 685.126 340.111L686.829 340.838Z" fill="white"/>
</g>
</svg>
