<svg xmlns="http://www.w3.org/2000/svg" width="14" height="14" fill="currentColor" viewBox="0 0 14 14">
  <path d="M6.725 13.129c-1.293 0-1.893-.19-2.937-.947-.66.852-2.75 1.518-2.842.378 0-.855-.188-1.578-.402-2.368C.289 9.22 0 8.137 0 6.568 0 2.82 3.062 0 6.69 0c3.631 0 6.476 2.959 6.476 6.602.012 3.588-2.87 6.508-6.441 6.527Zm.053-9.89c-1.767-.09-3.144 1.138-3.448 3.064-.251 1.595.195 3.537.576 3.638.182.044.64-.329.927-.616a3.26 3.26 0 0 0 1.597.571 3.37 3.37 0 0 0 3.518-3.148 3.373 3.373 0 0 0-3.169-3.504V3.24Z"/>
</svg>
