<svg width="826" height="828" viewBox="0 0 826 828" fill="none" xmlns="http://www.w3.org/2000/svg">
<g filter="url(#filter0_f_2058_16)">
<path d="M542.851 106.074L473.602 183.057C442.572 217.799 403.153 243.999 359.118 259.149C315.084 274.299 267.906 277.892 222.099 269.584L120.213 251.479C116.457 251.237 112.714 252.117 109.458 254.008C106.202 255.899 103.582 258.715 101.929 262.099C100.276 265.483 99.6652 269.281 100.175 273.012C100.685 276.742 102.291 280.236 104.791 283.05L181.7 352.286C216.41 383.31 242.575 422.73 257.693 466.776C272.811 510.822 276.376 558.019 268.045 603.85L249.89 705.792C249.186 709.703 249.777 713.736 251.572 717.28C253.367 720.823 256.269 723.683 259.837 725.426C263.405 727.169 267.445 727.7 271.343 726.938C275.242 726.176 278.786 724.162 281.438 721.203L350.687 644.221C381.717 609.478 421.135 583.278 465.17 568.128C509.205 552.978 556.383 549.386 602.189 557.693L704.076 575.799C707.984 576.5 712.016 575.907 715.559 574.109C719.102 572.311 721.962 569.407 723.707 565.836C725.451 562.265 725.984 558.223 725.224 554.324C724.465 550.424 722.454 546.879 719.498 544.228L642.589 474.992C607.879 443.968 581.714 404.547 566.596 360.501C551.478 316.455 547.913 269.259 556.244 223.427L574.399 121.485C575.102 117.574 574.512 113.541 572.717 109.998C570.922 106.454 568.02 103.594 564.452 101.851C560.884 100.108 556.844 99.5774 552.945 100.339C549.047 101.102 545.503 103.115 542.851 106.074Z" fill="#F26D4A" fill-opacity="0.14"/>
</g>
<defs>
<filter id="filter0_f_2058_16" x="0" y="0" width="825.561" height="827.277" filterUnits="userSpaceOnUse" color-interpolation-filters="sRGB">
<feFlood flood-opacity="0" result="BackgroundImageFix"/>
<feBlend mode="normal" in="SourceGraphic" in2="BackgroundImageFix" result="shape"/>
<feGaussianBlur stdDeviation="50" result="effect1_foregroundBlur_2058_16"/>
</filter>
</defs>
</svg>
