<svg xmlns="http://www.w3.org/2000/svg" width="15" height="12" fill="currentColor" viewBox="0 0 15 12">
  <path d="M.982 5.1c3.836-1.672 6.394-2.774 7.674-3.307C12.312.273 13.07.008 13.566 0c.182-.004.36.05.51.153a.558.558 0 0 1 .187.356c.027.172.034.346.023.519-.2 2.08-1.056 7.13-1.492 9.46-.184.987-.547 1.318-.9 1.35-.764.071-1.344-.505-2.084-.99-1.158-.759-1.813-1.227-2.937-1.973-1.3-.856-.457-1.326.284-2.095.194-.202 3.56-3.265 3.626-3.543a.268.268 0 0 0-.061-.232.3.3 0 0 0-.273-.027c-.116.027-1.966 1.25-5.55 3.669-.527.361-1.002.537-1.428.528-.47-.01-1.374-.266-2.046-.485-.824-.267-1.478-.409-1.422-.864.03-.238.356-.48.979-.727Z"/>
</svg>
