<svg width="896" height="390" viewBox="0 0 896 390" fill="none" xmlns="http://www.w3.org/2000/svg">
<path d="M18.0524 31.3763C17.8714 32.9678 17.7131 34.7185 17.5773 36.6284C17.3964 38.4928 17.2606 40.4027 17.1701 42.358L16.8308 48.0876C16.7403 49.9974 16.6725 51.8391 16.6272 53.6125C16.4915 57.7506 16.401 61.8886 16.3557 66.0266V71.4834C16.3557 74.1208 16.401 77.1675 16.4915 80.6234C16.5367 84.1248 16.6272 87.8991 16.7629 91.9462C16.8534 95.9933 17.0118 99.9267 17.238 103.746C18.4143 100.109 19.6586 96.0387 20.9706 91.5369C22.2827 87.0351 23.5948 82.3741 24.9069 77.554C26.1737 72.6884 27.4179 67.9137 28.6395 63.23C29.8611 58.5009 30.947 54.09 31.8971 49.9974C32.8925 45.9504 33.7295 42.3807 34.4081 39.2886C35.132 36.1964 35.6071 33.9228 35.8333 32.4676C36.9644 32.6041 38.5706 32.7405 40.6518 32.8769C42.4163 32.9678 44.7917 33.0588 47.7778 33.1497C50.7639 33.2407 54.5644 33.2862 59.1793 33.2862C58.8626 37.1059 58.6137 40.9711 58.4328 44.8817C58.2518 48.7924 58.1161 52.5439 58.0256 56.1363C57.9351 59.8196 57.8898 63.2073 57.8898 66.2995C57.8446 69.5735 57.822 72.2792 57.822 74.4164L57.7541 77.0765C57.7541 77.9405 57.7541 79.1001 57.7541 80.5552C57.7541 81.9649 57.7541 83.8293 57.7541 86.1484C57.7993 88.3765 57.8446 91.4687 57.8898 95.4248C57.9803 99.29 58.0934 104.042 58.2292 109.681C58.3649 115.274 58.5459 122.186 58.7721 130.416H55.4466C54.2251 130.416 52.4605 130.439 50.1531 130.484C47.8909 130.484 45.0179 130.553 41.5341 130.689C42.0318 126.824 42.4163 123.027 42.6878 119.298C42.914 115.615 43.0724 112.295 43.1629 109.34C43.2986 105.929 43.3665 102.701 43.3665 99.6538C43.3665 96.0615 43.2986 92.1508 43.1629 87.9218C43.0724 84.193 42.9367 79.8959 42.7557 75.0303C42.5747 70.0737 42.3032 64.6852 41.9413 58.8647C41.1269 61.3657 40.2446 64.2532 39.2945 67.5272C38.2991 70.7103 37.2811 74.0981 36.2405 77.6904C35.2452 81.2828 34.2272 84.9433 33.1865 88.6721C32.1459 92.4918 31.1279 96.1751 30.1326 99.722C29.1824 103.314 28.2776 106.816 27.4179 110.226C26.5583 113.591 25.7891 116.661 25.1105 119.435C24.4771 122.254 23.9568 124.664 23.5496 126.665C23.0971 128.666 22.803 130.143 22.6673 131.098C22.0791 131.007 21.2421 130.916 20.1562 130.825C19.2514 130.735 18.0298 130.666 16.4915 130.621C14.9532 130.575 13.0077 130.553 10.655 130.553H6.31155C4.68276 130.553 2.89562 130.598 0.950126 130.689C1.08586 127.779 1.19897 124.687 1.28946 121.413L1.42519 111.522C1.47043 108.248 1.49306 105.065 1.49306 101.973V86.353C1.49306 83.5337 1.47043 80.4188 1.42519 77.0083C1.37995 73.416 1.3347 69.7781 1.28946 66.0948C1.19897 62.2296 1.08586 58.2962 0.950126 54.2946C0.859638 50.2475 0.746528 46.2687 0.610795 42.358C0.429819 38.3564 0.22622 34.5139 0 30.8306L18.0524 31.3763Z" fill="#F26D4A"/>
<path d="M87.2759 131.439C83.3396 131.439 80.1499 131.462 77.7067 131.508C75.3088 131.599 73.4085 131.689 72.006 131.78C70.3772 131.917 69.1782 132.031 68.4091 132.121C68.771 129.575 69.0877 126.869 69.3592 124.005C69.6307 121.094 69.8795 118.139 70.1057 115.137C70.3319 112.136 70.5129 109.158 70.6487 106.202C70.7844 103.246 70.8975 100.427 70.988 97.744C71.169 91.4232 71.2821 85.1025 71.3273 78.7818C71.2821 72.461 71.169 66.3449 70.988 60.4335C70.8975 57.9325 70.7844 55.3405 70.6487 52.6576C70.5129 49.9292 70.3546 47.2691 70.1736 44.6771C69.9926 42.0852 69.7664 39.6069 69.4949 37.2423C69.2687 34.8777 68.9973 32.7405 68.6805 30.8306H73.0918C75.535 30.8306 77.6389 30.8079 79.4034 30.7624C81.1679 30.6715 82.6383 30.5805 83.8147 30.4896C85.172 30.3986 86.3257 30.2849 87.2759 30.1485C87.0497 34.6958 86.846 39.2658 86.6651 43.8586C86.5293 48.4514 86.4162 52.8395 86.3257 57.023C86.2353 61.161 86.1674 64.958 86.1221 68.4139C86.0769 71.8699 86.0543 74.7574 86.0543 77.0765C87.5021 77.1675 88.9047 77.213 90.262 77.213C91.6193 77.213 92.954 77.213 94.2661 77.213C97.1165 77.213 99.6275 77.1675 101.799 77.0765C104.016 76.9401 105.849 76.8037 107.296 76.6673C107.296 76.3944 107.274 75.4168 107.229 73.7343C107.229 72.0063 107.206 69.8464 107.161 67.2544C107.115 64.6624 107.025 61.7522 106.889 58.5236C106.799 55.295 106.663 52.021 106.482 48.7015C106.301 45.3819 106.075 42.1761 105.803 39.0839C105.532 35.9463 105.193 33.1952 104.785 30.8306H109.129C111.436 30.8306 113.427 30.8079 115.101 30.7624C116.82 30.6715 118.245 30.5805 119.377 30.4896C120.689 30.3986 121.797 30.2849 122.702 30.1485C122.566 33.1043 122.431 36.1055 122.295 39.1522C122.204 42.1534 122.114 45.1318 122.023 48.0876C121.978 50.9978 121.933 53.8399 121.888 56.6137C121.842 59.3421 121.797 61.9341 121.752 64.3896C121.661 70.1192 121.616 75.6441 121.616 80.9645C121.616 86.2393 121.661 91.6051 121.752 97.0619C121.797 99.381 121.842 101.837 121.888 104.428C121.933 106.975 121.978 109.59 122.023 112.273C122.114 114.91 122.204 117.547 122.295 120.185C122.431 122.822 122.566 125.369 122.702 127.824C118.901 127.824 115.825 127.87 113.472 127.961C111.12 128.006 109.287 128.074 107.975 128.165C106.437 128.302 105.283 128.415 104.514 128.506C104.921 125.733 105.26 122.777 105.532 119.639C105.803 116.502 106.03 113.318 106.211 110.09C106.437 106.861 106.595 103.678 106.686 100.541C106.821 97.4029 106.934 94.4699 107.025 91.7415C104.853 91.5142 102.772 91.3778 100.781 91.3323C98.7905 91.2413 96.8902 91.1959 95.0805 91.1959C93.1802 91.1959 91.4609 91.2186 89.9226 91.2641C88.4296 91.3095 87.1401 91.3778 86.0543 91.4687C86.0543 93.9242 86.0769 96.7663 86.1221 99.9949C86.1674 103.223 86.2353 106.611 86.3257 110.158C86.4615 113.659 86.5972 117.252 86.7329 120.935C86.8687 124.573 87.0497 128.074 87.2759 131.439Z" fill="#F26D4A"/>
<path d="M151.749 131.439C147.812 131.439 144.623 131.462 142.18 131.508C139.782 131.599 137.881 131.689 136.479 131.78C134.85 131.917 133.651 132.031 132.882 132.121C133.244 129.575 133.561 126.869 133.832 124.005C134.104 121.094 134.352 118.139 134.579 115.137C134.805 112.136 134.986 109.158 135.121 106.202C135.257 103.246 135.37 100.427 135.461 97.744C135.642 91.4232 135.755 85.1025 135.8 78.7818C135.755 72.461 135.642 66.3449 135.461 60.4335C135.37 57.9325 135.257 55.3405 135.121 52.6576C134.986 49.9292 134.827 47.2691 134.646 44.6771C134.465 42.0852 134.239 39.6069 133.968 37.2423C133.742 34.8777 133.47 32.7405 133.153 30.8306H137.565C140.008 30.8306 142.112 30.8079 143.876 30.7624C145.641 30.6715 147.111 30.5805 148.288 30.4896C149.645 30.3986 150.799 30.2849 151.749 30.1485C151.522 34.6958 151.319 39.2658 151.138 43.8586C151.002 48.4514 150.889 52.8395 150.799 57.023C150.708 61.161 150.64 64.958 150.595 68.4139C150.55 71.8699 150.527 74.7574 150.527 77.0765C151.975 77.1675 153.377 77.213 154.735 77.213C156.092 77.213 157.427 77.213 158.739 77.213C161.589 77.213 164.1 77.1675 166.272 77.0765C168.489 76.9401 170.321 76.8037 171.769 76.6673C171.769 76.3944 171.747 75.4168 171.701 73.7343C171.701 72.0063 171.679 69.8464 171.633 67.2544C171.588 64.6624 171.498 61.7522 171.362 58.5236C171.272 55.295 171.136 52.021 170.955 48.7015C170.774 45.3819 170.548 42.1761 170.276 39.0839C170.005 35.9463 169.665 33.1952 169.258 30.8306H173.602C175.909 30.8306 177.9 30.8079 179.574 30.7624C181.293 30.6715 182.718 30.5805 183.849 30.4896C185.161 30.3986 186.27 30.2849 187.175 30.1485C187.039 33.1043 186.903 36.1055 186.768 39.1522C186.677 42.1534 186.587 45.1318 186.496 48.0876C186.451 50.9978 186.406 53.8399 186.36 56.6137C186.315 59.3421 186.27 61.9341 186.225 64.3896C186.134 70.1192 186.089 75.6441 186.089 80.9645C186.089 86.2393 186.134 91.6051 186.225 97.0619C186.27 99.381 186.315 101.837 186.36 104.428C186.406 106.975 186.451 109.59 186.496 112.273C186.587 114.91 186.677 117.547 186.768 120.185C186.903 122.822 187.039 125.369 187.175 127.824C183.374 127.824 180.298 127.87 177.945 127.961C175.592 128.006 173.76 128.074 172.448 128.165C170.91 128.302 169.756 128.415 168.987 128.506C169.394 125.733 169.733 122.777 170.005 119.639C170.276 116.502 170.502 113.318 170.683 110.09C170.91 106.861 171.068 103.678 171.158 100.541C171.294 97.4029 171.407 94.4699 171.498 91.7415C169.326 91.5142 167.245 91.3778 165.254 91.3323C163.263 91.2413 161.363 91.1959 159.553 91.1959C157.653 91.1959 155.934 91.2186 154.395 91.2641C152.902 91.3095 151.613 91.3778 150.527 91.4687C150.527 93.9242 150.55 96.7663 150.595 99.9949C150.64 103.223 150.708 106.611 150.799 110.158C150.934 113.659 151.07 117.252 151.206 120.935C151.342 124.573 151.522 128.074 151.749 131.439Z" fill="#F26D4A"/>
<path d="M259.452 80.146C259.452 87.4216 258.774 94.2426 257.416 100.609C256.059 106.975 254.046 112.545 251.376 117.32C248.707 122.049 245.381 125.801 241.4 128.575C237.464 131.303 232.917 132.667 227.759 132.667C222.51 132.667 217.896 131.303 213.914 128.575C209.978 125.801 206.675 122.049 204.006 117.32C201.381 112.545 199.391 106.975 198.033 100.609C196.721 94.2426 196.065 87.4216 196.065 80.146C196.065 72.9158 196.699 66.1176 197.966 59.7514C199.278 53.3852 201.246 47.8375 203.87 43.1083C206.494 38.3791 209.797 34.6503 213.778 31.922C217.76 29.1481 222.42 27.7612 227.759 27.7612C233.279 27.7612 238.029 29.1481 242.011 31.922C246.037 34.6503 249.34 38.3791 251.919 43.1083C254.498 47.8375 256.398 53.3852 257.62 59.7514C258.841 66.1176 259.452 72.9158 259.452 80.146ZM241.671 80.146C241.671 74.5073 241.445 69.2097 240.993 64.2532C240.54 59.2512 239.771 54.9085 238.685 51.2252C237.645 47.4964 236.219 44.5634 234.41 42.4262C232.645 40.289 230.428 39.2204 227.759 39.2204C225.18 39.2204 223.008 40.289 221.244 42.4262C219.479 44.5634 218.054 47.4964 216.968 51.2252C215.882 54.9085 215.09 59.2512 214.593 64.2532C214.095 69.2097 213.846 74.5073 213.846 80.146C213.846 85.8301 214.095 91.1731 214.593 96.1751C215.09 101.132 215.882 105.474 216.968 109.203C218.099 112.886 219.547 115.819 221.311 118.002C223.076 120.139 225.225 121.208 227.759 121.208C230.247 121.208 232.374 120.139 234.138 118.002C235.903 115.819 237.351 112.886 238.482 109.203C239.613 105.474 240.427 101.132 240.925 96.1751C241.423 91.1731 241.671 85.8301 241.671 80.146Z" fill="#F26D4A"/>
<path d="M326.3 102.109C326.074 106.566 325.282 110.431 323.925 113.705C322.568 116.934 320.826 119.707 318.699 122.026C316.618 124.3 314.243 126.165 311.574 127.62C308.949 129.029 306.28 130.143 303.565 130.962C300.896 131.78 298.249 132.326 295.625 132.599C293.046 132.917 290.761 133.076 288.77 133.076C284.925 133.076 281.305 132.963 277.912 132.735C274.564 132.508 271.284 132.121 268.071 131.576C268.343 128.711 268.569 125.573 268.75 122.163C268.931 118.707 269.089 115.206 269.225 111.659C269.361 108.066 269.451 104.542 269.496 101.086C269.542 97.6303 269.587 94.4472 269.632 91.5369C269.677 88.5812 269.7 86.0347 269.7 83.8975C269.7 81.7148 269.7 80.146 269.7 79.191C269.655 72.6884 269.564 66.4131 269.429 60.3653C269.383 57.7733 269.315 55.1359 269.225 52.453C269.18 49.7246 269.112 47.0872 269.021 44.5407C268.976 41.9487 268.908 39.5159 268.818 37.2423C268.727 34.9232 268.614 32.8769 268.478 31.1035C269.745 30.9216 271.125 30.7851 272.618 30.6942C274.157 30.6033 275.672 30.535 277.165 30.4896C278.704 30.3986 280.197 30.3531 281.645 30.3531C283.138 30.3077 284.495 30.2849 285.716 30.2849C291.191 30.2849 296.349 30.6942 301.19 31.5127C306.076 32.3312 310.329 33.7409 313.949 35.7417C317.614 37.697 320.487 40.3117 322.568 43.5858C324.694 46.8143 325.758 50.8614 325.758 55.727C325.531 58.6828 324.807 61.4566 323.586 64.0486C323.043 65.1854 322.364 66.3449 321.55 67.5272C320.781 68.6641 319.808 69.7554 318.632 70.8013C317.455 71.8472 316.075 72.8248 314.492 73.7343C312.908 74.6437 311.098 75.394 309.062 75.9852C312.003 76.7582 314.469 77.9178 316.46 79.4639C318.451 81.0099 320.079 82.7379 321.346 84.6478C322.658 86.5122 323.631 88.4448 324.264 90.4456C324.943 92.4464 325.418 94.288 325.69 95.9705C326.006 97.653 326.187 99.0627 326.233 100.199C326.278 101.336 326.3 101.973 326.3 102.109ZM307.23 102.791C307.094 98.9717 306.461 95.5385 305.33 92.4919C304.832 91.2186 304.199 89.9681 303.43 88.7403C302.706 87.4671 301.801 86.353 300.715 85.3981C299.629 84.3977 298.34 83.6019 296.847 83.0107C295.353 82.4196 293.634 82.124 291.689 82.124C291.191 82.124 290.671 82.1468 290.128 82.1922C289.585 82.2377 288.997 82.3059 288.363 82.3969L287.82 120.935C289.178 121.208 290.512 121.344 291.824 121.344C293.725 121.344 295.376 121.094 296.779 120.594C298.227 120.048 299.493 119.344 300.579 118.48C301.665 117.57 302.57 116.57 303.294 115.478C304.063 114.387 304.696 113.25 305.194 112.068C306.37 109.34 307.049 106.247 307.23 102.791ZM306.959 55.3178C306.778 52.7713 306.144 50.4976 305.058 48.4968C304.606 47.6328 304.018 46.7916 303.294 45.9731C302.615 45.1546 301.756 44.427 300.715 43.7904C299.72 43.1538 298.521 42.6308 297.118 42.2216C295.761 41.8123 294.177 41.6077 292.367 41.6077C290.92 41.6077 289.313 41.7441 287.549 42.0169L288.363 70.9377H289.856C292.661 70.9377 295.037 70.5739 296.982 69.8463C298.928 69.0733 300.534 68.1411 301.801 67.0498C303.068 65.9129 304.04 64.6852 304.719 63.3665C305.443 62.0477 305.963 60.82 306.28 59.6832C306.597 58.5009 306.778 57.5232 306.823 56.7502C306.913 55.9316 306.959 55.4542 306.959 55.3178Z" fill="#F26D4A"/>
<path d="M335.666 120.935C335.666 117.434 335.576 113.932 335.395 110.431C335.259 106.929 335.1 103.428 334.919 99.9267C334.738 96.3798 334.557 92.8329 334.377 89.286C334.241 85.6937 334.173 82.0558 334.173 78.3725C334.173 74.5073 334.286 70.5966 334.512 66.6405C334.784 62.6389 335.281 58.7964 336.005 55.1131C336.729 51.3844 337.725 47.9057 338.991 44.6771C340.258 41.4031 341.91 38.561 343.946 36.1509C345.982 33.7409 348.47 31.831 351.411 30.4214C354.352 29.0117 357.813 28.3069 361.794 28.3069C365.595 28.3069 368.898 28.9208 371.703 30.1485C374.508 31.3308 376.883 32.9678 378.829 35.0596C380.82 37.1513 382.426 39.6069 383.647 42.4262C384.914 45.2455 385.887 48.2922 386.566 51.5662C387.289 54.8403 387.787 58.2508 388.059 61.7976C388.33 65.3445 388.466 68.8687 388.466 72.3701C388.466 73.2795 388.443 74.0753 388.398 74.7574C388.398 75.4395 388.375 76.1898 388.33 77.0083C388.33 77.7814 388.285 78.7136 388.194 79.8049C388.149 80.8963 388.081 82.3287 387.991 84.1021C387.9 85.8301 387.787 87.9673 387.651 90.5138C387.561 93.0602 387.448 96.1979 387.312 99.9267C387.176 103.655 387.018 108.066 386.837 113.159C386.656 118.207 386.475 124.118 386.294 130.894L366.002 130.143C366.771 124.959 367.45 119.776 368.038 114.592C368.672 109.362 369.192 104.497 369.599 99.9949C366.115 99.722 362.88 99.5856 359.894 99.5856C358.356 99.5856 356.908 99.6084 355.551 99.6538C354.193 99.6993 352.994 99.7675 351.954 99.8585C352.09 102.223 352.248 104.724 352.429 107.361C352.61 109.999 352.813 112.659 353.04 115.342C353.266 118.025 353.515 120.685 353.786 123.322C354.058 125.914 354.374 128.393 354.736 130.757L335.53 131.303C335.621 129.62 335.666 127.915 335.666 126.187C335.666 124.414 335.666 122.663 335.666 120.935ZM351.139 85.4663C352.497 85.5572 353.832 85.6027 355.144 85.6027C356.456 85.6027 357.745 85.6027 359.012 85.6027C363.853 85.6027 367.744 85.4663 370.685 85.1935C370.956 81.9649 371.228 78.7136 371.499 75.4395C371.816 72.1655 371.974 68.6641 371.974 64.9353C371.974 57.0685 371.16 51.0888 369.531 46.9962C367.948 42.8582 365.595 40.7892 362.473 40.7892C360.754 40.7892 359.17 41.4031 357.722 42.6308C356.275 43.8586 355.008 45.7685 353.922 48.3604C352.881 50.9069 352.044 54.1355 351.411 58.0461C350.823 61.9568 350.529 66.5723 350.529 71.8926C350.529 73.757 350.574 75.7578 350.664 77.8951C350.8 79.9868 350.958 82.5106 351.139 85.4663Z" fill="#F26D4A"/>
<path d="M450.835 116.024C453.278 117.206 455.224 119.184 456.671 121.958C457.983 124.414 458.572 126.801 458.436 129.12C458.3 131.439 457.644 133.645 456.468 135.737C455.246 137.783 453.617 139.715 451.581 141.534C449.545 143.262 447.261 144.808 444.727 146.173C444.003 146.582 443.234 146.991 442.419 147.4C441.56 147.855 440.678 148.242 439.773 148.56L438.958 148.833L431.425 138.26L432.782 137.715C433.461 137.442 434.14 137.123 434.818 136.76L437.058 135.532C438.189 134.941 439.252 134.304 440.248 133.622C441.288 132.985 442.148 132.303 442.827 131.576C443.46 130.939 443.867 130.303 444.048 129.666C444.229 129.166 444.184 128.643 443.912 128.097C443.777 127.915 443.641 127.756 443.505 127.62C443.234 127.438 442.917 127.301 442.555 127.21C441.695 127.074 440.678 127.097 439.501 127.279C438.868 127.415 438.234 127.574 437.601 127.756C436.651 128.393 435.633 128.984 434.547 129.53C431.651 130.894 428.213 131.576 424.231 131.576C420.431 131.576 417.128 130.985 414.323 129.802C411.518 128.575 409.12 126.938 407.129 124.891C405.138 122.8 403.509 120.344 402.243 117.525C401.021 114.66 400.048 111.613 399.324 108.385C398.601 105.111 398.103 101.7 397.831 98.1532C397.56 94.6063 397.424 91.0822 397.424 87.5808C397.424 86.6713 397.424 85.8755 397.424 85.1935C397.469 84.5114 397.515 83.7838 397.56 83.0107C397.605 82.0103 397.65 81.0554 397.696 80.146C397.786 79.0091 397.877 77.5767 397.967 75.8488C398.058 74.0753 398.171 71.9154 398.306 69.3689C398.397 67.0952 398.533 63.9349 398.714 59.8878C398.849 56.25 399.008 51.8618 399.189 46.7234C399.324 41.6304 399.505 35.7189 399.732 28.989L420.024 29.7393C419.345 36.7876 418.712 42.8127 418.123 47.8147C417.445 53.5898 416.924 58.0007 416.562 61.0473C416.11 64.8671 415.703 68.2321 415.341 71.1423C414.979 74.0526 414.685 76.8719 414.459 79.6003C414.232 82.3287 414.051 85.1252 413.916 87.99C413.825 90.8548 413.78 94.1516 413.78 97.8804C413.78 104.838 414.526 110.113 416.02 113.705C417.513 117.297 420.024 119.093 423.553 119.093C427.398 119.093 430.362 116.797 432.443 112.204C434.479 107.566 435.497 100.29 435.497 90.3773C435.497 79.5548 435.112 69.1188 434.343 59.0693C433.574 48.9743 432.556 39.0157 431.289 29.1936L450.495 28.5797C450.405 30.3531 450.36 32.1039 450.36 33.8318V38.9475C450.36 43.7222 450.428 48.3604 450.563 52.8622C450.699 57.364 450.857 61.4793 451.038 65.2081C451.219 69.3007 451.378 72.5975 451.513 75.0985C451.649 77.9633 451.717 80.1687 451.717 81.7148C451.717 85.58 451.581 89.4906 451.31 93.4468C451.084 97.4029 450.609 101.223 449.885 104.906C449.251 108.362 448.346 111.636 447.17 114.728C448.437 115.001 449.658 115.433 450.835 116.024Z" fill="#F26D4A"/>
<path d="M481.714 31.3763C481.533 32.9678 481.375 34.7185 481.239 36.6284C481.058 38.4928 480.922 40.4027 480.832 42.358L480.492 48.0876C480.402 49.9974 480.334 51.8391 480.289 53.6125C480.153 57.7506 480.063 61.8886 480.017 66.0266V71.4834C480.017 74.1208 480.062 77.1675 480.153 80.6234C480.198 84.1248 480.289 87.8991 480.424 91.9462C480.515 95.9933 480.673 99.9267 480.9 103.746C482.076 100.109 483.32 96.0387 484.632 91.5369C485.944 87.0351 487.256 82.3741 488.568 77.554C489.835 72.6884 491.079 67.9137 492.301 63.23C493.523 58.5009 494.608 54.09 495.559 49.9974C496.554 45.9504 497.391 42.3807 498.07 39.2886C498.794 36.1964 499.269 33.9228 499.495 32.4676C500.626 32.6041 502.232 32.7405 504.313 32.8769C506.078 32.9678 508.453 33.0588 511.439 33.1497C514.425 33.2407 518.226 33.2862 522.841 33.2862C522.524 37.1059 522.275 40.9711 522.094 44.8817C521.913 48.7924 521.778 52.5439 521.687 56.1363C521.597 59.8196 521.551 63.2073 521.551 66.2995C521.506 69.5735 521.483 72.2792 521.483 74.4164L521.416 77.0765C521.416 77.9405 521.416 79.1001 521.416 80.5552C521.416 81.9649 521.416 83.8293 521.416 86.1484C521.461 88.3765 521.506 91.4687 521.551 95.4248C521.642 99.29 521.755 104.042 521.891 109.681C522.026 115.274 522.207 122.186 522.434 130.416H519.108C517.887 130.416 516.122 130.439 513.815 130.484C511.552 130.484 508.679 130.553 505.196 130.689C505.693 126.824 506.078 123.027 506.349 119.298C506.576 115.615 506.734 112.295 506.824 109.34C506.96 105.929 507.028 102.701 507.028 99.6538C507.028 96.0615 506.96 92.1508 506.824 87.9218C506.734 84.193 506.598 79.8959 506.417 75.0303C506.236 70.0737 505.965 64.6852 505.603 58.8647C504.788 61.3657 503.906 64.2532 502.956 67.5272C501.961 70.7103 500.943 74.0981 499.902 77.6904C498.907 81.2828 497.889 84.9433 496.848 88.6721C495.807 92.4918 494.789 96.1751 493.794 99.722C492.844 103.314 491.939 106.816 491.079 110.226C490.22 113.591 489.451 116.661 488.772 119.435C488.139 122.254 487.618 124.664 487.211 126.665C486.759 128.666 486.465 130.143 486.329 131.098C485.741 131.007 484.904 130.916 483.818 130.825C482.913 130.735 481.691 130.666 480.153 130.621C478.615 130.575 476.669 130.553 474.316 130.553H469.973C468.344 130.553 466.557 130.598 464.612 130.689C464.747 127.779 464.861 124.687 464.951 121.413L465.087 111.522C465.132 108.248 465.155 105.065 465.155 101.973V86.353C465.155 83.5337 465.132 80.4188 465.087 77.0083C465.041 73.416 464.996 69.7781 464.951 66.0948C464.861 62.2296 464.747 58.2962 464.612 54.2946C464.521 50.2475 464.408 46.2687 464.272 42.358C464.091 38.3564 463.888 34.5139 463.661 30.8306L481.714 31.3763Z" fill="#F26D4A"/>
<path d="M594.168 80.146C594.168 87.4216 593.489 94.2426 592.132 100.609C590.775 106.975 588.761 112.545 586.092 117.32C583.423 122.049 580.097 125.801 576.116 128.575C572.18 131.303 567.633 132.667 562.475 132.667C557.226 132.667 552.611 131.303 548.63 128.575C544.694 125.801 541.391 122.049 538.721 117.32C536.097 112.545 534.107 106.975 532.749 100.609C531.437 94.2426 530.781 87.4216 530.781 80.146C530.781 72.9158 531.415 66.1176 532.681 59.7514C533.994 53.3852 535.962 47.8375 538.586 43.1083C541.21 38.3791 544.513 34.6503 548.494 31.922C552.476 29.1481 557.136 27.7612 562.475 27.7612C567.994 27.7612 572.745 29.1481 576.727 31.922C580.753 34.6503 584.056 38.3791 586.635 43.1083C589.214 47.8375 591.114 53.3852 592.336 59.7514C593.557 66.1176 594.168 72.9158 594.168 80.146ZM576.387 80.146C576.387 74.5073 576.161 69.2097 575.709 64.2532C575.256 59.2512 574.487 54.9085 573.401 51.2252C572.36 47.4964 570.935 44.5634 569.126 42.4262C567.361 40.289 565.144 39.2204 562.475 39.2204C559.896 39.2204 557.724 40.289 555.959 42.4262C554.195 44.5634 552.77 47.4964 551.684 51.2252C550.598 54.9085 549.806 59.2512 549.309 64.2532C548.811 69.2097 548.562 74.5073 548.562 80.146C548.562 85.8301 548.811 91.1731 549.309 96.1751C549.806 101.132 550.598 105.474 551.684 109.203C552.815 112.886 554.263 115.819 556.027 118.002C557.792 120.139 559.941 121.208 562.475 121.208C564.963 121.208 567.09 120.139 568.854 118.002C570.619 115.819 572.066 112.886 573.198 109.203C574.329 105.474 575.143 101.132 575.641 96.1751C576.138 91.1731 576.387 85.8301 576.387 80.146Z" fill="#F26D4A"/>
<path d="M620.975 131.439C617.039 131.439 613.849 131.462 611.406 131.508C609.008 131.599 607.108 131.689 605.705 131.78C604.077 131.917 602.878 132.031 602.109 132.121C602.47 129.575 602.787 126.869 603.059 124.005C603.33 121.094 603.579 118.139 603.805 115.137C604.031 112.136 604.212 109.158 604.348 106.202C604.484 103.246 604.597 100.427 604.687 97.744C604.868 91.4232 604.982 85.1025 605.027 78.7818C604.982 72.461 604.868 66.3449 604.687 60.4335C604.597 57.9325 604.484 55.3405 604.348 52.6576C604.212 49.9292 604.054 47.2691 603.873 44.6771C603.692 42.0852 603.466 39.6069 603.194 37.2423C602.968 34.8777 602.697 32.7405 602.38 30.8306H606.791C609.234 30.8306 611.338 30.8079 613.103 30.7624C614.867 30.6715 616.338 30.5805 617.514 30.4896C618.871 30.3986 620.025 30.2849 620.975 30.1485C620.749 34.6958 620.545 39.2658 620.365 43.8586C620.229 48.4514 620.116 52.8395 620.025 57.023C619.935 61.161 619.867 64.958 619.822 68.4139C619.776 71.8699 619.754 74.7574 619.754 77.0765C621.201 77.1675 622.604 77.213 623.961 77.213C625.319 77.213 626.653 77.213 627.965 77.213C630.816 77.213 633.327 77.1675 635.499 77.0765C637.716 76.9401 639.548 76.8037 640.996 76.6673C640.996 76.3944 640.973 75.4168 640.928 73.7343C640.928 72.0063 640.905 69.8464 640.86 67.2544C640.815 64.6624 640.724 61.7522 640.589 58.5236C640.498 55.295 640.362 52.021 640.181 48.7015C640 45.3819 639.774 42.1761 639.503 39.0839C639.231 35.9463 638.892 33.1952 638.485 30.8306H642.828C645.136 30.8306 647.126 30.8079 648.8 30.7624C650.52 30.6715 651.945 30.5805 653.076 30.4896C654.388 30.3986 655.497 30.2849 656.401 30.1485C656.266 33.1043 656.13 36.1055 655.994 39.1522C655.904 42.1534 655.813 45.1318 655.723 48.0876C655.677 50.9978 655.632 53.8399 655.587 56.6137C655.542 59.3421 655.497 61.9341 655.451 64.3896C655.361 70.1192 655.316 75.6441 655.316 80.9645C655.316 86.2393 655.361 91.6051 655.451 97.0619C655.497 99.381 655.542 101.837 655.587 104.428C655.632 106.975 655.677 109.59 655.723 112.273C655.813 114.91 655.904 117.547 655.994 120.185C656.13 122.822 656.266 125.369 656.401 127.824C652.601 127.824 649.524 127.87 647.172 127.961C644.819 128.006 642.987 128.074 641.674 128.165C640.136 128.302 638.982 128.415 638.213 128.506C638.62 125.733 638.96 122.777 639.231 119.639C639.503 116.502 639.729 113.318 639.91 110.09C640.136 106.861 640.294 103.678 640.385 100.541C640.521 97.4029 640.634 94.4699 640.724 91.7415C638.553 91.5142 636.471 91.3778 634.481 91.3323C632.49 91.2413 630.59 91.1959 628.78 91.1959C626.88 91.1959 625.16 91.2186 623.622 91.2641C622.129 91.3095 620.84 91.3778 619.754 91.4687C619.754 93.9242 619.776 96.7663 619.822 99.9949C619.867 103.223 619.935 106.611 620.025 110.158C620.161 113.659 620.297 117.252 620.432 120.935C620.568 124.573 620.749 128.074 620.975 131.439Z" fill="#F26D4A"/>
<path d="M685.448 131.439C681.512 131.439 678.322 131.462 675.879 131.508C673.481 131.599 671.581 131.689 670.178 131.78C668.549 131.917 667.35 132.031 666.581 132.121C666.943 129.575 667.26 126.869 667.531 124.005C667.803 121.094 668.052 118.139 668.278 115.137C668.504 112.136 668.685 109.158 668.821 106.202C668.957 103.246 669.07 100.427 669.16 97.744C669.341 91.4232 669.454 85.1025 669.5 78.7818C669.454 72.461 669.341 66.3449 669.16 60.4335C669.07 57.9325 668.957 55.3405 668.821 52.6576C668.685 49.9292 668.527 47.2691 668.346 44.6771C668.165 42.0852 667.939 39.6069 667.667 37.2423C667.441 34.8777 667.17 32.7405 666.853 30.8306H671.264C673.707 30.8306 675.811 30.8079 677.576 30.7624C679.34 30.6715 680.811 30.5805 681.987 30.4896C683.344 30.3986 684.498 30.2849 685.448 30.1485C685.222 34.6958 685.018 39.2658 684.837 43.8586C684.702 48.4514 684.589 52.8395 684.498 57.023C684.408 61.161 684.34 64.958 684.294 68.4139C684.249 71.8699 684.227 74.7574 684.227 77.0765C685.674 77.1675 687.077 77.213 688.434 77.213C689.792 77.213 691.126 77.213 692.438 77.213C695.289 77.213 697.8 77.1675 699.971 77.0765C702.188 76.9401 704.021 76.8037 705.469 76.6673C705.469 76.3944 705.446 75.4168 705.401 73.7343C705.401 72.0063 705.378 69.8464 705.333 67.2544C705.288 64.6624 705.197 61.7522 705.061 58.5236C704.971 55.295 704.835 52.021 704.654 48.7015C704.473 45.3819 704.247 42.1761 703.976 39.0839C703.704 35.9463 703.365 33.1952 702.958 30.8306H707.301C709.608 30.8306 711.599 30.8079 713.273 30.7624C714.992 30.6715 716.418 30.5805 717.549 30.4896C718.861 30.3986 719.969 30.2849 720.874 30.1485C720.739 33.1043 720.603 36.1055 720.467 39.1522C720.377 42.1534 720.286 45.1318 720.196 48.0876C720.15 50.9978 720.105 53.8399 720.06 56.6137C720.015 59.3421 719.969 61.9341 719.924 64.3896C719.834 70.1192 719.788 75.6441 719.788 80.9645C719.788 86.2393 719.834 91.6051 719.924 97.0619C719.969 99.381 720.015 101.837 720.06 104.428C720.105 106.975 720.15 109.59 720.196 112.273C720.286 114.91 720.377 117.547 720.467 120.185C720.603 122.822 720.739 125.369 720.874 127.824C717.074 127.824 713.997 127.87 711.644 127.961C709.292 128.006 707.459 128.074 706.147 128.165C704.609 128.302 703.455 128.415 702.686 128.506C703.093 125.733 703.433 122.777 703.704 119.639C703.976 116.502 704.202 113.318 704.383 110.09C704.609 106.861 704.767 103.678 704.858 100.541C704.994 97.4029 705.107 94.4699 705.197 91.7415C703.025 91.5142 700.944 91.3778 698.953 91.3323C696.963 91.2413 695.062 91.1959 693.253 91.1959C691.352 91.1959 689.633 91.2186 688.095 91.2641C686.602 91.3095 685.312 91.3778 684.227 91.4687C684.227 93.9242 684.249 96.7663 684.294 99.9949C684.34 103.223 684.408 106.611 684.498 110.158C684.634 113.659 684.769 117.252 684.905 120.935C685.041 124.573 685.222 128.074 685.448 131.439Z" fill="#F26D4A"/>
<path d="M768.245 110.158C769.014 107.657 769.399 104.679 769.399 101.223C769.399 97.4939 768.969 94.1061 768.109 91.0595C767.295 87.9673 766.028 85.3071 764.309 83.079C762.635 80.8508 760.531 79.0773 757.997 77.7586C755.463 76.4399 752.5 75.6896 749.107 75.5077C749.152 77.8723 749.197 80.7826 749.242 84.2385C749.288 87.8309 749.355 91.6961 749.446 95.8341C749.536 100.018 749.65 104.315 749.785 108.726C749.876 113.137 750.011 117.343 750.192 121.344C753.495 121.163 756.368 120.662 758.811 119.844C761.209 119.025 763.178 117.82 764.716 116.229C766.299 114.637 767.476 112.614 768.245 110.158ZM783.515 86.012C785.732 90.5592 786.863 95.8114 786.908 101.768C786.908 106.77 786.252 110.999 784.94 114.455C783.673 117.957 781.999 120.844 779.918 123.118C777.837 125.391 775.484 127.188 772.86 128.506C770.236 129.78 767.589 130.712 764.919 131.303C762.295 131.94 759.762 132.326 757.318 132.463C754.875 132.599 752.817 132.667 751.143 132.667C748.971 132.667 746.211 132.599 742.863 132.463C739.56 132.281 736.167 131.871 732.683 131.235C732.819 129.825 732.932 128.165 733.022 126.255C733.068 124.209 733.135 122.117 733.226 119.98C733.271 117.798 733.316 115.501 733.362 113.091C733.407 111.272 733.452 108.976 733.497 106.202C733.588 100.927 733.633 95.4021 733.633 89.6271C733.588 83.6701 733.497 77.3949 733.362 70.8013C733.271 67.982 733.181 64.9808 733.09 61.7976C733.045 58.6145 732.954 55.3178 732.819 51.9073C732.683 48.4968 732.525 44.9727 732.344 41.3349C732.163 37.788 731.959 34.2411 731.733 30.6942C732.095 30.6942 732.547 30.7169 733.09 30.7624C733.543 30.7624 734.108 30.7851 734.787 30.8306C735.466 30.8306 736.257 30.8306 737.162 30.8306C738.836 30.8306 740.782 30.7851 742.999 30.6942C745.216 30.6033 747.659 30.4214 750.328 30.1485C750.057 33.468 749.831 36.7876 749.65 40.1071C749.514 43.4721 749.401 46.6779 749.31 49.7246C749.22 52.7713 749.152 55.6361 749.107 58.319C749.107 60.9109 749.107 63.1618 749.107 65.0717H750.464C754.717 65.0717 758.992 65.8675 763.291 67.459C767.589 69.0506 771.48 71.3924 774.964 74.4846C778.493 77.5767 781.343 81.4192 783.515 86.012ZM813.987 129.598L796.07 131.439C796.16 128.347 796.251 125.187 796.341 121.958L796.613 102.45C796.658 99.2673 796.681 96.2661 796.681 93.4468C796.726 86.8532 796.749 80.3278 796.749 73.8707C796.703 68.1866 796.635 62.6389 796.545 57.2276C796.5 54.863 796.455 52.5212 796.409 50.2021C796.319 47.7465 796.228 45.3819 796.138 43.1083C796.047 40.7892 795.957 38.6065 795.866 36.5602C795.731 34.4684 795.572 32.6041 795.391 30.967L812.494 30.1485C812.403 32.8769 812.335 35.7872 812.29 38.8793L812.086 47.7465C812.041 50.7932 812.018 53.6125 812.018 56.2045C811.973 58.9329 811.951 61.4793 811.951 63.8439C811.951 75.7123 812.109 87.0124 812.426 97.744C812.697 108.521 813.217 119.139 813.987 129.598Z" fill="#F26D4A"/>
<path d="M841.948 31.3763C841.767 32.9678 841.608 34.7185 841.472 36.6284C841.291 38.4928 841.156 40.4027 841.065 42.358L840.726 48.0876C840.635 49.9974 840.568 51.8391 840.522 53.6125C840.387 57.7506 840.296 61.8886 840.251 66.0266V71.4834C840.251 74.1208 840.296 77.1675 840.387 80.6234C840.432 84.1248 840.522 87.8991 840.658 91.9462C840.749 95.9933 840.907 99.9267 841.133 103.746C842.309 100.109 843.554 96.0387 844.866 91.5369C846.178 87.0351 847.49 82.3741 848.802 77.554C850.069 72.6884 851.313 67.9137 852.535 63.23C853.756 58.5009 854.842 54.09 855.792 49.9974C856.788 45.9504 857.625 42.3807 858.303 39.2886C859.027 36.1964 859.502 33.9228 859.728 32.4676C860.859 32.6041 862.466 32.7405 864.547 32.8769C866.311 32.9678 868.687 33.0588 871.673 33.1497C874.659 33.2407 878.46 33.2862 883.074 33.2862C882.758 37.1059 882.509 40.9711 882.328 44.8817C882.147 48.7924 882.011 52.5439 881.921 56.1363C881.83 59.8196 881.785 63.2073 881.785 66.2995C881.74 69.5735 881.717 72.2792 881.717 74.4164L881.649 77.0765C881.649 77.9405 881.649 79.1001 881.649 80.5552C881.649 81.9649 881.649 83.8293 881.649 86.1484C881.694 88.3765 881.74 91.4687 881.785 95.4248C881.875 99.29 881.988 104.042 882.124 109.681C882.26 115.274 882.441 122.186 882.667 130.416H879.342C878.12 130.416 876.356 130.439 874.048 130.484C871.786 130.484 868.913 130.553 865.429 130.689C865.927 126.824 866.311 123.027 866.583 119.298C866.809 115.615 866.967 112.295 867.058 109.34C867.194 105.929 867.262 102.701 867.262 99.6538C867.262 96.0615 867.194 92.1508 867.058 87.9218C866.967 84.193 866.832 79.8959 866.651 75.0303C866.47 70.0737 866.198 64.6852 865.836 58.8647C865.022 61.3657 864.14 64.2532 863.19 67.5272C862.194 70.7103 861.176 74.0981 860.136 77.6904C859.14 81.2828 858.122 84.9433 857.082 88.6721C856.041 92.4918 855.023 96.1751 854.028 99.722C853.078 103.314 852.173 106.816 851.313 110.226C850.453 113.591 849.684 116.661 849.006 119.435C848.372 122.254 847.852 124.664 847.445 126.665C846.992 128.666 846.698 130.143 846.562 131.098C845.974 131.007 845.137 130.916 844.051 130.825C843.146 130.735 841.925 130.666 840.387 130.621C838.848 130.575 836.903 130.553 834.55 130.553H830.207C828.578 130.553 826.791 130.598 824.845 130.689C824.981 127.779 825.094 124.687 825.185 121.413L825.32 111.522C825.365 108.248 825.388 105.065 825.388 101.973V86.353C825.388 83.5337 825.365 80.4188 825.32 77.0083C825.275 73.416 825.23 69.7781 825.185 66.0948C825.094 62.2296 824.981 58.2962 824.845 54.2946C824.755 50.2475 824.642 46.2687 824.506 42.358C824.325 38.3564 824.121 34.5139 823.895 30.8306L841.948 31.3763ZM866.515 2.11449C865.429 2.02354 864.298 1.88712 863.122 1.70523C862.126 1.56881 861.063 1.40966 859.932 1.22777C858.801 1.0004 857.76 0.727566 856.81 0.409256V2.25091C856.81 3.84246 856.72 5.43401 856.539 7.02556C856.358 8.61711 856.064 10.0495 855.656 11.3227C855.249 12.596 854.729 13.6191 854.096 14.3922C853.462 15.2107 852.693 15.6199 851.788 15.6199C850.838 15.6199 850.069 15.3016 849.481 14.665C848.938 14.0739 848.508 13.2553 848.191 12.2095C847.875 11.2091 847.671 10.0722 847.58 8.799C847.445 7.52576 847.377 6.22978 847.377 4.91107V2.38733C847.377 1.56881 847.422 0.773039 847.513 0L836.925 1.36419C836.79 2.27364 836.722 3.1831 836.722 4.09256C836.677 5.04749 836.654 5.91148 836.654 6.68451C836.654 9.50383 836.925 12.1867 837.468 14.7332C838.057 17.2797 838.939 19.5079 840.115 21.4177C841.291 23.3276 842.785 24.8509 844.594 25.9878C846.404 27.0791 848.576 27.6248 851.109 27.6248C854.005 27.6248 856.448 26.9199 858.439 25.5103C860.43 24.0552 862.013 22.1908 863.19 19.9171C864.366 17.689 865.203 15.2334 865.701 12.5505C866.244 9.82214 866.515 7.18472 866.515 4.63823V2.11449Z" fill="#F26D4A"/>
<path d="M169.994 386.071L128.44 389.093C129.346 375.796 130.051 363.607 130.555 352.526C131.16 341.445 131.562 331.824 131.764 323.665C132.066 314.195 132.217 305.582 132.217 297.826C132.217 294.199 132.167 290.119 132.066 285.586C131.965 281.758 131.814 277.175 131.613 271.835C131.512 266.496 131.311 260.603 131.008 254.156C128.389 266.345 126.072 276.872 124.058 285.737C122.144 294.501 120.582 301.754 119.373 307.496C117.862 314.246 116.653 319.887 115.747 324.42C114.336 330.565 113.077 336.71 111.969 342.855C110.962 348.093 110.005 353.684 109.098 359.628C108.192 365.571 107.537 370.961 107.134 375.796L68.4508 375.494C66.3353 362.398 64.1695 349.856 61.9532 337.869C59.8378 325.78 57.6216 314.145 55.3046 302.963C53.0884 291.681 50.7714 280.751 48.3538 270.173C46.0368 259.495 43.5687 248.918 40.9496 238.441C40.4459 248.515 40.0933 257.632 39.8918 265.791C39.6904 273.951 39.5896 281.003 39.5896 286.946C39.5896 304.071 40.0429 320.29 40.9496 335.602C41.8562 350.914 43.0651 366.075 44.5761 381.085L0 382.294C0.705159 375.041 1.30958 367.233 1.81327 358.872C2.31695 350.41 2.7199 341.898 3.02211 333.335C3.42506 324.672 3.72727 316.21 3.92874 307.95C4.13022 299.589 4.28132 291.781 4.38206 284.528C4.4828 277.275 4.53316 270.828 4.53316 265.187C4.6339 259.546 4.68427 255.164 4.68427 252.041C4.68427 246.399 4.6339 239.952 4.53316 232.699C4.53316 225.446 4.43243 218.042 4.23095 210.487C4.13022 202.831 3.97911 195.376 3.77764 188.123C3.57616 180.769 3.27395 174.221 2.871 168.479C7.70638 168.681 12.2899 168.832 16.6216 168.933C20.9533 169.033 25.0331 169.084 28.8611 169.084C38.6326 169.084 46.2383 168.933 51.6781 168.63C54.9017 168.53 57.7223 168.379 60.14 168.177C61.5503 180.971 63.0614 193.462 64.6731 205.651C66.3857 217.74 68.2493 229.627 70.2641 241.312C72.2788 252.998 74.4446 264.582 76.7616 276.066C79.1793 287.45 81.7481 298.833 84.468 310.216C88.0945 297.423 91.5699 284.881 94.8942 272.591C98.2186 260.301 101.241 248.162 103.961 236.175C106.68 224.187 109.048 212.3 111.063 200.514C113.077 188.727 114.639 176.992 115.747 165.306C119.474 165.508 122.949 165.659 126.173 165.759C129.397 165.86 132.419 165.911 135.239 165.911C140.981 165.911 145.817 165.81 149.746 165.608C153.775 165.407 157.099 165.155 159.718 164.853C162.741 164.551 165.209 164.198 167.123 163.795C166.317 174.372 165.662 184.849 165.158 195.225C164.655 205.601 164.252 215.473 163.949 224.842C163.748 234.21 163.597 242.823 163.496 250.681C163.496 258.437 163.496 264.985 163.496 270.324C163.496 272.541 163.496 275.966 163.496 280.6C163.597 285.233 163.748 290.724 163.949 297.07C164.151 303.316 164.403 310.166 164.705 317.62C165.007 325.075 165.36 332.731 165.763 340.588C166.266 348.446 166.871 356.253 167.576 364.01C168.281 371.767 169.087 379.12 169.994 386.071Z" fill="white"/>
<path d="M328.503 273.649C328.503 289.767 326.992 304.877 323.97 318.98C320.948 333.084 316.465 345.424 310.522 356.001C304.578 366.478 297.174 374.789 288.309 380.934C279.545 386.978 269.421 390 257.937 390C246.252 390 235.976 386.978 227.112 380.934C218.347 374.789 210.994 366.478 205.05 356.001C199.207 345.424 194.775 333.084 191.753 318.98C188.831 304.877 187.371 289.767 187.371 273.649C187.371 257.632 188.781 242.571 191.602 228.468C194.523 214.365 198.905 202.075 204.748 191.598C210.591 181.122 217.944 172.861 226.809 166.817C235.674 160.672 246.05 157.6 257.937 157.6C270.227 157.6 280.804 160.672 289.669 166.817C298.635 172.861 305.989 181.122 311.731 191.598C317.473 202.075 321.704 214.365 324.423 228.468C327.143 242.571 328.503 257.632 328.503 273.649ZM288.914 273.649C288.914 261.157 288.41 249.422 287.403 238.441C286.395 227.36 284.683 217.74 282.265 209.58C279.948 201.32 276.775 194.822 272.745 190.087C268.817 185.353 263.881 182.985 257.937 182.985C252.195 182.985 247.36 185.353 243.431 190.087C239.502 194.822 236.329 201.32 233.911 209.58C231.494 217.74 229.731 227.36 228.623 238.441C227.514 249.422 226.96 261.157 226.96 273.649C226.96 286.241 227.514 298.077 228.623 309.159C229.731 320.139 231.494 329.759 233.911 338.02C236.43 346.179 239.653 352.677 243.582 357.512C247.511 362.247 252.296 364.614 257.937 364.614C263.478 364.614 268.212 362.247 272.141 357.512C276.07 352.677 279.293 346.179 281.812 338.02C284.33 329.759 286.143 320.139 287.252 309.159C288.36 298.077 288.914 286.241 288.914 273.649Z" fill="white"/>
<path d="M388.341 348.144L390.759 348.295C397.81 348.396 404.812 348.446 411.762 348.446H422.189L421.735 342.553C420.527 327.14 419.116 311.425 417.504 295.408C415.893 279.592 414.079 263.777 412.065 247.961C410.05 232.145 407.834 216.833 405.416 202.025C402.898 216.833 400.53 232.145 398.314 247.961C396.199 263.777 394.335 279.643 392.723 295.559C391.111 311.576 389.751 327.342 388.643 342.855L388.341 348.144ZM474.169 371.716C474.169 374.134 474.219 376.4 474.32 378.516C474.32 380.631 474.37 382.545 474.471 384.258C474.572 385.87 474.723 387.129 474.924 388.036C467.873 387.633 459.965 387.33 451.201 387.129C442.336 386.827 433.018 386.625 423.246 386.525C413.777 386.323 403.804 386.172 393.328 386.071C383.254 385.971 373.482 385.92 364.013 385.92H335.907C336.109 382.495 336.31 378.768 336.512 374.738C336.713 370.709 336.814 366.478 336.814 362.045C336.814 356.505 336.512 350.612 335.907 344.366C340.441 345.071 345.629 345.676 351.471 346.179H352.076L355.249 331.22C359.077 312.483 362.351 293.796 365.071 275.16C367.791 256.523 370.108 237.937 372.022 219.402C373.936 200.866 375.648 182.381 377.159 163.946L434.126 167.724C436.644 187.67 438.961 206.105 441.077 223.028C443.394 241.463 445.912 259.797 448.632 278.031C451.453 296.365 454.525 314.548 457.85 332.58L460.569 346.633L464.8 346.179C469.132 345.676 472.507 345.071 474.924 344.366C474.723 344.668 474.572 345.424 474.471 346.633C474.37 347.842 474.32 349.353 474.32 351.166C474.219 352.979 474.169 355.044 474.169 357.361V371.716Z" fill="white"/>
<path d="M603.515 257.632C603.717 262.165 603.918 266.95 604.12 271.987C604.22 276.923 604.372 282.715 604.573 289.364C604.674 295.71 604.724 303.165 604.724 311.727C604.724 321.801 603.717 331.522 601.702 340.891C599.687 350.259 596.262 358.57 591.427 365.823C586.591 372.975 580.094 378.717 571.934 383.049C563.775 387.381 553.55 389.547 541.26 389.547C534.007 389.547 527.61 388.69 522.069 386.978C516.428 385.265 511.542 382.948 507.412 380.027C503.181 377.106 499.655 373.681 496.835 369.752C493.913 365.823 491.596 361.693 489.884 357.361C488.071 352.929 486.811 348.396 486.106 343.762C485.3 339.229 484.897 334.846 484.897 330.616C484.897 324.974 485.854 320.29 487.768 316.563C489.582 312.835 491.848 309.864 494.568 307.647C497.187 305.431 499.958 303.87 502.879 302.963C505.7 302.057 508.168 301.603 510.283 301.603C512.499 301.603 515.119 302.057 518.141 302.963C521.062 303.769 523.883 305.23 526.603 307.345C529.323 309.36 531.639 312.03 533.553 315.354C535.367 318.678 536.273 322.758 536.273 327.593C536.072 331.321 535.266 334.796 533.856 338.02C532.647 340.74 530.783 343.459 528.265 346.179C525.646 348.799 521.918 350.662 517.083 351.77C518.896 354.692 520.961 357.059 523.278 358.872C525.495 360.585 527.811 361.894 530.229 362.801C532.546 363.708 534.762 364.312 536.878 364.614C538.993 364.916 540.756 365.068 542.166 365.068C547.505 365.068 551.787 364.01 555.01 361.894C558.234 359.678 560.702 356.656 562.415 352.828C564.127 348.899 565.286 344.366 565.89 339.229C566.394 333.99 566.646 328.349 566.646 322.305C566.646 308.504 566.646 294.955 566.646 281.657L566.494 260.351C566.091 260.754 565.487 261.258 564.681 261.863L562.717 263.525C561.004 265.036 559.594 266.245 558.486 267.151C554.96 270.073 552.593 271.936 551.384 272.742C547.455 274.958 543.829 276.62 540.504 277.729C536.576 279.038 532.697 279.844 528.869 280.146C521.415 280.146 514.917 278.837 509.377 276.218C503.836 273.598 499.253 269.921 495.626 265.187C491.999 260.351 489.33 254.559 487.617 247.81C485.804 241.161 484.897 233.656 484.897 225.295C484.897 213.71 485.452 202.428 486.56 191.447C487.567 180.568 489.28 169.89 491.697 159.413L530.078 162.435C527.66 170.796 525.847 178.251 524.638 184.799C523.329 191.347 522.372 196.988 521.767 201.723C521.062 207.062 520.659 211.746 520.558 215.775C520.558 222.525 520.861 228.367 521.465 233.304C522.069 238.24 523.178 242.37 524.789 245.694C526.3 248.918 528.416 251.336 531.136 252.947C533.856 254.559 537.331 255.365 541.562 255.365C544.483 255.063 547.354 253.652 550.175 251.134C551.384 250.127 552.643 248.767 553.953 247.054C555.262 245.442 556.572 243.428 557.881 241.01C559.191 238.592 560.45 235.772 561.659 232.548C562.868 229.324 564.026 225.597 565.134 221.366L565.286 217.135L564.53 202.176C563.825 189.08 562.767 176.085 561.357 163.191C562.465 163.392 563.875 163.594 565.588 163.795C568.308 164.097 572.488 164.248 578.13 164.248C581.756 164.248 585.886 164.148 590.52 163.946C595.255 163.745 600.594 163.291 606.537 162.586C605.732 173.567 605.077 183.187 604.573 191.447C604.069 199.708 603.717 207.011 603.515 213.358C603.213 219.805 603.062 225.496 603.062 230.433C602.961 235.369 602.961 240.053 603.062 244.485C603.163 248.918 603.314 253.3 603.515 257.632Z" fill="white"/>
<path d="M640.989 387.582C634.442 387.582 627.44 387.885 619.986 388.489C625.224 369.55 629.757 350.713 633.585 331.975C637.413 313.238 640.687 294.552 643.407 275.915C646.127 257.279 648.444 238.693 650.358 220.157C652.272 201.622 653.984 183.137 655.496 164.702L712.462 168.479C714.981 188.425 717.298 206.86 719.413 223.784C721.73 242.219 724.299 260.553 727.12 278.786C729.839 297.12 732.862 315.303 736.186 333.335C739.51 351.468 743.288 369.55 747.519 387.582C745.504 387.582 743.489 387.482 741.475 387.28C739.46 387.179 737.546 387.129 735.733 387.129C730.091 387.129 724.702 387.28 719.564 387.582C714.225 387.884 708.685 388.187 702.943 388.489C702.237 373.882 701.281 358.822 700.072 343.308C698.863 327.896 697.453 312.181 695.841 296.163C694.229 280.348 692.416 264.532 690.401 248.716C688.386 232.901 686.17 217.589 683.752 202.78C681.234 217.589 678.917 232.901 676.801 248.716C674.585 264.532 672.671 280.398 671.059 296.315C669.448 312.332 668.088 328.097 666.98 343.611C665.972 359.225 665.267 374.285 664.864 388.791C660.633 388.287 656.553 387.935 652.625 387.733C648.696 387.633 644.817 387.582 640.989 387.582Z" fill="white"/>
<path d="M841.506 340.135C843.219 334.595 844.075 327.996 844.075 320.34C844.075 312.08 843.118 304.575 841.204 297.826C839.391 290.976 836.57 285.082 832.742 280.146C829.015 275.21 824.331 271.281 818.689 268.36C813.048 265.439 806.45 263.777 798.895 263.374C798.995 268.612 799.096 275.059 799.197 282.715C799.298 290.673 799.449 299.236 799.65 308.403C799.852 317.671 800.104 327.19 800.406 336.962C800.607 346.733 800.909 356.052 801.312 364.916C808.666 364.514 815.063 363.405 820.503 361.592C825.842 359.779 830.224 357.109 833.649 353.584C837.175 350.058 839.794 345.575 841.506 340.135ZM875.505 286.644C880.441 296.718 882.96 308.353 883.06 321.549C883.06 332.63 881.6 341.999 878.678 349.655C875.858 357.412 872.13 363.808 867.497 368.845C862.863 373.882 857.624 377.861 851.782 380.783C845.939 383.603 840.046 385.668 834.102 386.978C828.26 388.388 822.618 389.244 817.178 389.547C811.739 389.849 807.155 390 803.428 390C798.592 390 792.447 389.849 784.993 389.547C777.639 389.144 770.084 388.237 762.327 386.827C762.629 383.704 762.881 380.027 763.083 375.796C763.183 371.263 763.335 366.629 763.536 361.894C763.637 357.059 763.737 351.972 763.838 346.633C763.939 342.603 764.04 337.516 764.14 331.371C764.342 319.686 764.443 307.446 764.443 294.652C764.342 281.456 764.14 267.554 763.838 252.947C763.637 246.702 763.435 240.053 763.234 233.001C763.133 225.95 762.932 218.646 762.629 211.091C762.327 203.536 761.975 195.729 761.572 187.67C761.169 179.812 760.715 171.955 760.212 164.097C761.018 164.097 762.025 164.148 763.234 164.248C764.241 164.248 765.5 164.299 767.011 164.399C768.523 164.399 770.285 164.399 772.3 164.399C776.027 164.399 780.359 164.299 785.295 164.097C790.231 163.896 795.671 163.493 801.615 162.888C801.01 170.242 800.506 177.596 800.104 184.95C799.801 192.404 799.549 199.506 799.348 206.256C799.147 213.005 798.995 219.352 798.895 225.295C798.895 231.037 798.895 236.023 798.895 240.254H801.917C811.386 240.254 820.906 242.017 830.476 245.543C840.046 249.069 848.709 254.257 856.466 261.107C864.323 267.957 870.67 276.469 875.505 286.644Z" fill="white"/>
<path d="M885.99 180.974L875.907 180.461C871.37 180.247 866.963 178.87 863.107 176.461C859.251 174.053 856.076 170.694 853.885 166.706L848.983 157.858C848.77 157.558 848.473 157.328 848.13 157.198C847.787 157.067 847.412 157.042 847.055 157.125C846.697 157.208 846.372 157.395 846.122 157.664C845.871 157.933 845.706 158.27 845.647 158.633L845.145 168.735C844.935 173.281 843.565 177.695 841.165 181.556C838.765 185.417 835.415 188.595 831.437 190.787L822.611 195.69C822.272 195.877 822.003 196.171 821.846 196.525C821.688 196.88 821.651 197.276 821.739 197.654C821.826 198.032 822.035 198.372 822.332 198.621C822.63 198.87 823 199.014 823.387 199.033L833.471 199.546C838.007 199.76 842.415 201.138 846.27 203.546C850.126 205.954 853.302 209.313 855.493 213.302L860.394 222.149C860.582 222.489 860.875 222.758 861.229 222.917C861.583 223.075 861.979 223.113 862.356 223.025C862.733 222.938 863.072 222.729 863.32 222.431C863.568 222.133 863.712 221.762 863.731 221.374L864.233 211.272C864.442 206.727 865.813 202.312 868.213 198.451C870.613 194.59 873.962 191.412 877.941 189.22L886.767 184.318C887.106 184.13 887.374 183.837 887.532 183.482C887.689 183.128 887.727 182.731 887.639 182.353C887.551 181.975 887.343 181.636 887.045 181.387C886.748 181.138 886.377 180.993 885.99 180.974Z" fill="#F26D4A"/>
</svg>
